# Alias OBJ Model File
# Exported from SketchUp, (c) 2000-2006 Google, Inc.
# File units = inches

mtllib Barrel_Construction.mtl

g Mesh1 Barrel_Half1 Model

usemtl _WhiteSmoke_
v -6.41861 24.5 8.83447
vt -1.46559 25.1774
vn -0.587152 0.0464016 0.808146
v -6.20701 32.25 8.54322
vt -1.57684 32.935
v -10.0432 32.25 3.26322
vt -8.10328 32.935
vn -0.950032 0.0464016 0.308684
v -10.3855 24.5 3.37447
vt -8.21452 25.1774
f 1/1/1 2/2/1 3/3/2 4/4/2 

vt 8.26564 32.8391
vt 8.15439 25.0815
v -1.11555e-11 24.5 10.92
vt 14.9033 25.0815
vn -1.16724e-16 0.0464016 0.998923
v -1.11555e-11 32.25 10.56
vt 14.7921 32.8391
f 2/5/1 1/6/1 5/7/3 6/8/3 

usemtl _OrangeRed_
vt 8.15439 25.0815
vn -0.587152 0.0464016 0.808146
v -6.63022 16.75 9.12571
vt 8.04314 17.324
v -1.11555e-11 16.75 11.28
vt 15.0146 17.324
vn -1.75086e-16 0.0464016 0.998923
f 1/9/4 7/10/4 8/11/5 5/7/5 

vt -1.35435 17.4199
vn -0.950032 0.0464016 0.308684
v -10.7279 16.75 3.48571
vt -8.32577 17.4199
f 7/12/4 1/1/4 4/4/6 9/13/6 

vt -15.9858 24.8304
v -10.3855 24.5 1.62039e-11
vt -19.3602 24.8304
vn -0.999026 0.0441351 -1.35071e-15
v -10.7279 16.75 1.62039e-11
vt -19.3602 17.0728
vt -15.8745 17.0728
f 4/14/6 10/15/7 11/16/7 9/17/6 

usemtl _WhiteSmoke_
vt -16.097 32.588
v -10.0432 32.25 1.62039e-11
vt -19.3602 32.588
vn -0.999026 0.0441351 -9.87196e-16
vt -15.9858 24.8304
f 3/18/2 12/19/8 10/15/8 4/20/2 

usemtl _OrangeRed_
v -9.70078 40 3.15197
vt -16.2083 40.3455
vn -0.950032 0.0464016 0.308684
v -9.70078 40 1.62039e-11
vt -19.3602 40.3455
vn -0.999026 0.0441351 -5.04555e-16
f 13/21/9 14/22/10 12/19/10 3/18/9 

v -0.475528 40 10.0455
vt 17.9371 9.31474
vn 0 1 -0
v -0.475528 40 1.62039e-11
vt 17.9371 19.3602
vt 8.7119 19.3602
vt 8.7119 16.2083
v -5.99541 40 8.25197
vt 12.4173 11.1083
f 15/23/11 16/24/11 14/25/11 13/26/11 17/27/11 

vt -9.31474 40
vn -1 -5.16357e-16 -5.26544e-16
v -0.475528 41.1764 5.66241
vt -13.6978 41.1764
vt -19.3602 40
f 15/28/12 18/29/12 16/30/12

v -0.475528 42.4778 9.88063
vt -9.47961 42.4778
f 15/28/12 19/31/12 18/29/12

v -0.475528 42 10.0455
vt -9.31474 42
f 19/31/12 15/28/12 20/32/12

vt 17.9371 40
vn -1.86777e-15 0 1
v 0.475528 40 10.0455
vt 18.8882 40
v 0.475528 42 10.0455
vt 18.8882 42
vn -1.39526e-15 0.165378 0.98623
vt 17.9371 42
f 15/33/13 21/34/13 22/35/14 20/36/14 

vt 18.8882 9.31474
v -1.11555e-11 40 10.2
vt 18.4127 9.16024
f 21/37/11 15/23/11 23/38/11

vt 8.37688 40.5966
vn -0.587152 0.0464016 0.808146
vt 8.26564 32.8391
vt 14.7921 32.8391
vn -1.16724e-16 0.0464016 0.998923
vt 14.6808 40.5966
vt 14.1808 40.5966
vn -0.308716 0.0441351 0.95013
f 17/39/15 2/40/15 6/41/16 23/42/16 15/43/17 

vt -7.99203 40.6926
vt -8.10328 32.935
vt -1.57684 32.935
vt -1.68809 40.6926
f 13/44/9 3/45/9 2/46/15 17/47/15 

vt 20.3422 40.0944
vt 20.2309 32.3368
v 6.20701 32.25 8.54322
vt 26.7574 32.3368
vn 0.587152 0.0464016 0.808146
v 5.99541 40 8.25197
vt 26.6461 40.0944
vt 20.8422 40.0944
vn 0.308716 0.0441351 0.95013
f 23/48/16 6/49/16 24/50/18 25/51/18 21/52/19 

usemtl _WhiteSmoke_
vt 20.1197 24.5793
v 6.41861 24.5 8.83447
vt 26.8686 24.5793
vn 0.587152 0.0464016 0.808146
f 6/49/3 5/53/3 26/54/20 24/50/20 

usemtl _OrangeRed_
vt 20.0084 16.8217
v 6.63022 16.75 9.12571
vt 26.9799 16.8217
vn 0.587152 0.0464016 0.808146
f 5/53/5 8/55/5 27/56/21 26/54/21 

usemtl _WhiteSmoke_
vn -2.62628e-16 0.0464016 0.998923
v -1.11555e-11 9 11.64
vt 19.8972 9.06417
v 6.84182 9 9.41696
vt 27.0911 9.06417
vn 0.587152 0.0464016 0.808146
f 8/55/22 28/57/22 29/58/23 27/56/23 

vn -0.587152 0.0464016 0.808146
v -6.84182 9 9.41696
vt 7.9319 9.56641
vt 15.1258 9.56641
f 7/10/24 30/59/24 28/60/22 8/11/22 

vt -1.2431 9.66233
vt -1.35435 17.4199
vt -8.32577 17.4199
vn -0.950032 0.0464016 0.308684
v -11.0703 9 3.59696
vt -8.43702 9.66233
f 30/61/24 7/62/24 9/63/25 31/64/25 

vt -15.8745 17.0728
vn -0.999026 0.0441351 -4.5724e-16
v -11.0703 9 1.62039e-11
vt -19.3602 9.31529
vt -15.7633 9.31529
f 9/65/25 11/16/26 32/66/26 31/67/25 

usemtl _OrangeRed_
vt -15.7633 9.31529
vn -0.950032 0.0464016 0.308684
vt -19.3602 9.31529
vn -0.999026 0.0441351 1.27036e-16
v -11.4127 1.25 1.62039e-11
vt -19.3602 1.55773
v -11.4127 1.25 3.7082
vt -15.652 1.55773
f 31/68/27 32/69/28 33/70/28 34/71/27 

usemtl _Charcoal_
vt -15.652 7.11073
vn -0.159239 0.985883 0.05174
vt -19.3602 7.11073
vn -0.175791 0.984428 6.91526e-17
v -18.4127 4.89941e-16 1.62039e-11
vt -19.3602 7.49734e-15
v -18.4127 0 5.98264
vt -13.3776 5.18054e-15
f 34/72/29 33/73/30 35/74/30 36/75/29 

v 11.4127 0 3.7082
vt -29.8254 15.652
vn -4.03522e-18 -1 -6.3261e-18
v 11.4127 0 1.62039e-11
vt -29.8254 19.3602
v 18.4127 0 1.62039e-11
vt -36.8254 19.3602
v 18.4127 0 5.98264
vt -36.8254 13.3776
v 11.3797 0 15.6628
vt -29.7923 3.69748
v -1.11591e-11 0 19.3602
vt -18.4127 4.70024e-34
v -11.3797 0 15.6628
vt -7.03302 3.69748
vt 0 13.3776
vt 8.74896e-17 19.3602
v -11.4127 0 1.62039e-11
vt -7 19.3602
v -11.4127 0 3.7082
vt -7 15.652
v -7.05342 0 9.7082
vt -11.3593 9.65203
v -1.11555e-11 0 12
vt -18.4127 7.36024
v 7.05342 0 9.7082
vt -25.4661 9.65203
f 37/76/31 38/77/31 39/78/31 40/79/31 41/80/31 42/81/31 43/82/31 36/83/31 35/84/31 44/85/31 45/86/31 46/87/31 47/88/31 48/89/31 

vt 13.3776 -36.2519
vn 0.159239 0.985883 0.05174
vt 19.3602 -36.2519
vn 0.175791 0.984428 -2.30509e-17
v 11.4127 1.25 1.62039e-11
vt 19.3602 -29.1412
v 11.4127 1.25 3.7082
vt 15.652 -29.1412
f 40/90/32 39/91/33 49/92/33 50/93/32 

usemtl _OrangeRed_
vt 15.652 -0.067562
vn 0.950032 0.0464016 0.308684
vt 19.3602 -0.067562
vn 0.999026 0.0441351 4.76038e-16
v 11.0703 9 1.62039e-11
vt 19.3602 7.69
v 11.0703 9 3.59696
vt 15.7633 7.69
f 50/94/34 49/95/35 51/96/35 52/97/34 

usemtl _WhiteSmoke_
vt 15.7633 7.69
vn 0.950032 0.0464016 0.308684
vt 19.3602 7.69
vn 0.999026 0.0441351 4.57828e-16
v 10.7279 16.75 1.62039e-11
vt 19.3602 15.4476
v 10.7279 16.75 3.48571
vt 15.8745 15.4476
f 52/98/36 51/99/37 53/100/37 54/101/36 

usemtl _OrangeRed_
vt 15.8745 15.4476
vn 0.950032 0.0464016 0.308684
vt 19.3602 15.4476
vn 0.999026 0.0441351 1.05571e-15
v 10.3855 24.5 1.62039e-11
vt 19.3602 23.2051
v 10.3855 24.5 3.37447
vt 15.9858 23.2051
f 54/102/38 53/103/39 55/104/39 56/105/38 

usemtl _WhiteSmoke_
vt 15.9858 23.2051
vn 0.950032 0.0464016 0.308684
vt 19.3602 23.2051
vn 0.999026 0.0441351 6.41594e-16
v 10.0432 32.25 1.62039e-11
vt 19.3602 30.9627
v 10.0432 32.25 3.26322
vt 16.097 30.9627
f 56/106/40 55/107/41 57/108/41 58/109/40 

usemtl _OrangeRed_
vt 16.097 30.9627
vn 0.950032 0.0464016 0.308684
vt 19.3602 30.9627
vn 0.999026 0.0441351 5.38288e-17
v 9.70078 40 1.62039e-11
vt 19.3602 38.7202
v 9.70078 40 3.15197
vt 16.2083 38.7202
f 58/110/42 57/111/43 59/112/43 60/113/42 

vt 28.1135 16.2083
vt 28.1135 19.3602
v 0.475528 40 1.62039e-11
vt 18.8882 19.3602
vt 24.4081 11.1083
f 60/114/11 59/115/11 61/116/11 21/37/11 25/117/11 

vt 19.3602 40
vn 1 0 -0
vt 9.31474 42
vt 9.31474 40
f 61/118/44 22/119/44 21/120/44

v 0.475528 41.1764 5.66241
vt 13.6978 41.1764
f 22/119/44 61/118/44 62/121/44

v 0.475528 41.1764 5.19218
vt 14.1681 41.1764
f 62/121/44 61/118/44 63/122/44

v 0.475528 40.5 2
vt 17.3602 40.5
f 63/122/44 61/118/44 64/123/44

v 0.475528 40.5 1.62039e-11
vt 19.3602 40.5
f 64/123/44 61/118/44 65/124/44

vt 18.8882 17.3602
vn 1.66646e-16 0.992173 -0.124874
v -0.475528 40.5 1.62039e-11
v -0.475528 40.5 2
vt 17.9371 17.3602
f 64/125/45 65/116/11 66/24/11 67/126/45 

vt -17.3602 40.5
vt -19.3602 40.5
f 16/30/12 67/127/12 66/128/12

v -0.475528 41.1764 5.19218
vt -14.1681 41.1764
f 16/30/12 68/129/12 67/127/12

f 16/30/12 18/29/12 68/129/12

vt 17.9371 14.1681
vn 3.85614e-17 0.809017 0.587785
vt 17.9371 13.6978
vn 5.04756e-17 0.809017 -0.587785
vt 18.8882 13.6978
vt 18.8882 14.1681
f 68/130/46 18/131/47 62/132/47 63/133/46 

vt -17.9371 34.9282
v -0.475528 41.6236 5.80772
vt -17.9371 35.3984
vn -7.36581e-18 -0.309017 -0.951057
v 0.475528 41.6236 5.80772
vt -18.8882 35.3984
vt -18.8882 34.9282
f 18/134/47 69/135/48 70/136/48 62/137/47 

v -0.475528 43 9.04549
vt -10.3147 43
vt -13.5525 41.6236
f 18/29/12 71/138/12 69/139/12

v -0.475528 42.8351 9.52325
vt -9.83698 42.8351
f 18/29/12 72/140/12 71/138/12

f 18/29/12 19/31/12 72/140/12

v 0.475528 42.4778 9.88063
vt 18.8882 36.7394
vn -4.98558e-16 0.530203 0.847871
v 0.475528 42.8351 9.52325
vt 18.8882 37.2448
vn -4.5749e-17 0.847871 0.530203
vt 17.9371 37.2448
vt 17.9371 36.7394
f 73/141/49 74/142/50 72/143/50 19/144/49 

vt 9.47961 42.4778
vt 9.83698 42.8351
f 73/145/44 62/121/44 74/146/44

f 22/119/44 62/121/44 73/145/44

vt 18.8882 42.7411
vt 18.8882 43.2465
vt 17.9371 43.2465
vt 17.9371 42.7411
f 22/147/14 73/148/49 19/149/49 20/150/14 

v 0.475528 43 9.04549
vt 10.3147 43
f 74/146/44 62/121/44 75/151/44

vt 13.5525 41.6236
f 75/151/44 62/121/44 70/152/44

v 0.475528 41.9 5.42729
vt 13.9329 41.9
f 76/153/44 75/151/44 70/152/44

v 0.475528 43 1.62039e-11
vt 19.3602 43
f 75/151/44 76/153/44 77/154/44

v 0.475528 42.5 2
vt 17.3602 42.5
f 77/154/44 76/153/44 78/155/44

v 0.475528 42.4356 2.25181
vt 17.1084 42.4356
f 78/155/44 76/153/44 79/156/44

v 0.475528 41.6236 5.04687
vt 14.3134 41.6236
f 79/156/44 76/153/44 80/157/44

v -0.475528 41.9 5.42729
vt 17.9371 13.3562
vn -5.50279e-17 -1 -0
v -0.475528 41.6236 5.04687
vt 17.9371 12.886
vn -2.66433e-17 -0.309017 0.951057
vt 18.8882 12.886
vt 18.8882 13.3562
f 81/158/51 82/159/52 80/160/52 76/161/51 

vt -13.9329 41.9
v -0.475528 43 1.8091
vt -17.5511 43
vt -14.3134 41.6236
f 81/162/12 83/163/12 82/164/12

f 81/162/12 71/138/12 83/163/12

f 71/138/12 81/162/12 69/139/12

vt -17.9371 35.43
vt -17.9371 35.9002
vt -18.8882 35.9002
vt -18.8882 35.43
f 69/165/48 81/166/51 76/167/51 70/168/48 

vt 18.8882 10.3147
vn -9.33274e-19 0.98623 0.165378
vn 1.04452e-44 1 -1.22935e-46
v -0.475528 43 1.62039e-11
vt 17.9371 17.5511
vt 17.9371 10.3147
f 75/169/53 77/116/54 84/24/54 83/170/54 71/171/53 

v -0.475528 42.5 1.62039e-11
vt -19.3602 42.5
vt -19.3602 43
f 85/172/12 83/163/12 84/173/12

v -0.475528 42.5 2
vt -17.3602 42.5
f 86/174/12 83/163/12 85/172/12

v -0.475528 42.4356 2.25181
vt -17.1084 42.4356
f 87/175/12 83/163/12 86/174/12

v -0.475528 42.2518 2.4356
vt -16.9246 42.2518
f 88/176/12 83/163/12 87/175/12

f 82/164/12 83/163/12 88/176/12

v -0.475528 42 2.5
vt -16.8602 42
f 82/164/12 88/176/12 89/177/12

v 0.475528 42.2518 2.4356
vt -18.8882 45.1279
vn 7.74862e-18 -0.495057 -0.868861
v 0.475528 42 2.5
vt -18.8882 44.868
vn 1.39185e-16 -0.124874 -0.992173
vt -17.9371 44.868
vt -17.9371 45.1279
f 90/178/55 91/179/56 89/180/56 88/181/55 

vt 16.9246 42.2518
vt 16.8602 42
f 90/182/44 80/157/44 91/183/44

f 79/156/44 80/157/44 90/182/44

vt -18.8882 42.104
vn -1.69228e-16 -0.868861 -0.495057
vt -18.8882 41.8441
vt -17.9371 41.8441
vt -17.9371 42.104
f 79/184/57 90/185/55 88/186/55 87/187/57 

vt -18.8882 27.35
vn -1.22309e-16 -0.992173 -0.124874
vt -18.8882 27.0901
vt -17.9371 27.0901
vt -17.9371 27.35
f 78/188/58 79/189/57 87/190/57 86/191/58 

vt -17.9371 17.3602
vt -17.9371 19.3602
vn 0 -1 -0
v 0.475528 42.5 1.62039e-11
vt -18.8882 19.3602
vt -18.8882 17.3602
f 86/192/58 85/193/59 92/194/59 78/195/58 

vt 19.3602 42.5
f 77/154/44 78/155/44 92/196/44

v 0.475528 41 2.5
vt 16.8602 41
f 91/183/44 80/157/44 93/197/44

v 0.475528 40.7482 2.4356
vt 16.9246 40.7482
f 80/157/44 94/198/44 93/197/44

v 0.475528 40.5644 2.25181
vt 17.1084 40.5644
f 80/157/44 95/199/44 94/198/44

f 63/122/44 95/199/44 80/157/44

f 63/122/44 64/123/44 95/199/44

vt -18.8882 -6.52327
vn 3.45001e-16 0.868861 -0.495057
vt -18.8882 -6.78319
vt -17.9371 -6.78319
v -0.475528 40.5644 2.25181
vt -17.9371 -6.52327
f 95/200/60 64/201/45 67/202/45 96/203/60 

vt -17.1084 40.5644
f 67/127/12 68/129/12 96/204/12

f 96/204/12 68/129/12 82/164/12

vt 17.9371 44.0095
vt 17.9371 43.5392
vt 18.8882 43.5392
vt 18.8882 44.0095
f 82/205/52 68/206/46 63/207/46 80/208/52 

v -0.475528 40.7482 2.4356
vt -16.9246 40.7482
f 96/204/12 82/164/12 97/209/12

v -0.475528 41 2.5
vt -16.8602 41
f 97/209/12 82/164/12 98/210/12

f 98/210/12 82/164/12 89/177/12

vt -18.8882 42
vt -18.8882 41
vn 2.13091e-16 0.124874 -0.992173
vt -17.9371 41
vt -17.9371 42
f 91/211/56 93/212/61 98/213/61 89/214/56 

vt -18.8882 35.5435
vt -18.8882 35.2836
vn 3.00744e-16 0.495057 -0.868861
vt -17.9371 35.2836
vt -17.9371 35.5435
f 93/215/61 94/216/62 97/217/62 98/218/61 

vt -18.8882 16.8458
vt -18.8882 16.5859
vt -17.9371 16.5859
vt -17.9371 16.8458
f 94/219/62 95/220/60 96/221/60 97/222/62 

vt 18.8882 23.2718
vt 18.8882 23.7772
vt 17.9371 23.7772
vt 17.9371 23.2718
f 74/223/50 75/224/53 71/225/53 72/226/50 

vt 29.7487 31.6201
vt 29.6374 39.3777
vt 23.3335 39.3777
vt 23.2222 31.6201
f 58/227/42 60/228/42 25/229/18 24/230/18 

usemtl _WhiteSmoke_
vt 29.8599 23.8626
vt 29.7487 31.6201
vt 23.2222 31.6201
vt 23.111 23.8626
f 56/231/40 58/232/40 24/233/20 26/234/20 

usemtl _OrangeRed_
vt 29.9712 16.105
vt 29.8599 23.8626
vt 22.9997 16.105
f 54/235/38 56/236/38 26/234/21 27/237/21 

usemtl _WhiteSmoke_
vt 30.0824 8.34744
vt 22.8885 8.34744
f 52/238/36 54/235/36 27/237/23 29/239/23 

usemtl _OrangeRed_
vt 30.1937 0.589881
vt 30.0824 8.34744
vt 22.8885 8.34744
vn 0.587152 0.0464016 0.808146
v 7.05342 1.25 9.7082
vt 22.7773 0.589881
f 50/240/34 52/241/34 29/242/63 99/243/63 

vt 27.2023 1.30661
vn -1.45905e-16 0.0464016 0.998923
v -1.11555e-11 1.25 12
vt 19.7859 1.30661
f 99/244/63 29/58/63 28/57/64 100/245/64 

vt 15.2371 1.80885
vt 15.1258 9.56641
vt 7.9319 9.56641
vn -0.587152 0.0464016 0.808146
v -7.05342 1.25 9.7082
vt 7.82065 1.80885
f 100/246/64 28/247/64 30/248/65 101/249/65 

vt -1.13185 1.90477
vt -1.2431 9.66233
vt -8.43702 9.66233
vt -8.54826 1.90477
f 101/250/65 30/251/65 31/252/27 34/253/27 

usemtl _Charcoal_
vt -10.8227 7.7407
vt 1.14258 7.7407
vn -0.0984153 0.985883 0.135457
vt -1.13185 14.8514
vt -8.54826 14.8514
f 36/254/29 43/255/66 101/256/66 34/257/29 

vt 5.54621 5.60123
vt 17.5115 5.60123
vn -2.4322e-17 0.985883 0.167434
vt 15.2371 12.712
vt 7.82065 12.712
f 43/258/66 42/259/67 100/260/67 101/261/66 

vt 17.5115 -5.60123
vt 29.4768 -5.60123
vn 0.0984153 0.985883 0.135457
vt 27.2023 1.50951
vt 19.7859 1.50951
f 42/262/67 41/263/68 99/264/68 100/265/67 

vt 20.5028 -21.5877
vt 32.4681 -21.5877
vt 30.1937 -14.477
vt 22.7773 -14.477
f 41/266/68 40/267/32 50/268/32 99/269/68 

g Mesh2 Barrel_Half2 Model

usemtl _WhiteSmoke_
v 6.41861 24.5 -8.83447
vn 0.587152 0.0464016 -0.808146
v 6.20701 32.25 -8.54322
v 10.0432 32.25 -3.26322
vn 0.950032 0.0464016 -0.308684
v 10.3855 24.5 -3.37447
f 102/1/69 103/2/69 104/3/70 105/4/70 

v -4.86367e-12 24.5 -10.92
vn 5.75697e-13 0.0464016 -0.998923
v -5.06972e-12 32.25 -10.56
f 103/5/69 102/6/69 106/7/71 107/8/71 

usemtl _OrangeRed_
vn 0.587152 0.0464016 -0.808146
v 6.63022 16.75 -9.12571
v -4.65761e-12 16.75 -11.28
vn 5.75755e-13 0.0464016 -0.998923
f 102/9/72 108/10/72 109/11/73 106/7/73 

vn 0.950032 0.0464016 -0.308684
v 10.7279 16.75 -3.48571
f 108/12/72 102/1/72 105/4/74 110/13/74 

v 10.3855 24.5 1.65947e-11
vn 0.999026 0.0441351 5.7699e-13
v 10.7279 16.75 1.67937e-11
f 105/14/74 111/15/75 112/16/75 110/17/74 

usemtl _WhiteSmoke_
v 10.0432 32.25 1.63993e-11
vn 0.999026 0.0441351 5.76627e-13
f 104/18/70 113/19/76 111/15/76 105/20/70 

usemtl _OrangeRed_
v 9.70078 40 -3.15197
vn 0.950032 0.0464016 -0.308684
v 9.70078 40 1.62004e-11
vn 0.999026 0.0441351 5.76144e-13
f 114/21/77 115/22/78 113/19/78 104/18/77 

v 0.475528 40 -10.0455
v 0.475528 40 1.08855e-11
v 5.99541 40 -8.25197
f 116/23/11 117/24/11 115/25/11 114/26/11 118/27/11 

vn 1 -5.16357e-16 5.76727e-13
v 0.475528 41.1764 -5.66241
f 116/28/79 119/29/79 117/30/79

v 0.475528 42.4778 -9.88063
f 116/28/79 120/31/79 119/29/79

v 0.475528 42 -10.0455
f 120/31/79 116/28/79 121/32/79

vn 5.78069e-13 0 -1
v -0.475528 40 -10.0455
v -0.475528 42 -10.0455
vn 5.69662e-13 0.165378 -0.98623
f 116/33/80 122/34/80 123/35/81 121/36/81 

v -5.27933e-12 40 -10.2
f 122/37/11 116/23/11 124/38/11

vn 0.587152 0.0464016 -0.808146
vn 5.75697e-13 0.0464016 -0.998923
vn 0.308716 0.0441351 -0.95013
f 118/39/82 103/40/82 107/41/83 124/42/83 116/43/84 

f 114/44/77 104/45/77 103/46/82 118/47/82 

v -6.20701 32.25 -8.54322
vn -0.587152 0.0464016 -0.808146
v -5.99541 40 -8.25197
vn -0.308716 0.0441351 -0.95013
f 124/48/83 107/49/83 125/50/85 126/51/85 122/52/86 

usemtl _WhiteSmoke_
v -6.41861 24.5 -8.83447
vn -0.587152 0.0464016 -0.808146
f 107/49/71 106/53/71 127/54/87 125/50/87 

usemtl _OrangeRed_
v -6.63022 16.75 -9.12571
vn -0.587152 0.0464016 -0.808146
f 106/53/73 109/55/73 128/56/88 127/54/88 

usemtl _WhiteSmoke_
vn 5.75843e-13 0.0464016 -0.998923
v -4.448e-12 9 -11.64
v -6.84182 9 -9.41696
vn -0.587152 0.0464016 -0.808146
f 109/55/89 129/57/89 130/58/90 128/56/90 

vn 0.587152 0.0464016 -0.808146
v 6.84182 9 -9.41696
f 108/10/91 131/59/91 129/60/89 109/11/89 

vn 0.950032 0.0464016 -0.308684
v 11.0703 9 -3.59696
f 131/61/91 108/62/91 110/63/92 132/64/92 

vn 0.999026 0.0441351 5.76097e-13
v 11.0703 9 1.69891e-11
f 110/65/92 112/16/93 133/66/93 132/67/92 

usemtl _OrangeRed_
vn 0.950032 0.0464016 -0.308684
vn 0.999026 0.0441351 5.75512e-13
v 11.4127 1.25 1.7188e-11
v 11.4127 1.25 -3.7082
f 132/68/94 133/69/95 134/70/95 135/71/94 

usemtl _Charcoal_
vn 0.159239 0.985883 -0.05174
vn 0.175791 0.984428 1.01222e-13
v 18.4127 4.89941e-16 2.12204e-11
v 18.4127 0 -5.98264
f 135/72/96 134/73/97 136/74/97 137/75/96 

v -11.4127 0 -3.7082
vn 4.03522e-18 -1 6.3261e-18
v -11.4127 0 4.03588e-12
v -18.4127 0 -0
v -18.4127 0 -5.98264
v -11.3797 0 -15.6628
v 3.55271e-15 0 -19.3602
v 11.3797 0 -15.6628
v 11.4127 0 1.7188e-11
v 11.4127 0 -3.7082
v 7.05342 0 -9.7082
v -4.24194e-12 0 -12
v -7.05342 0 -9.7082
f 138/76/98 139/77/98 140/78/98 141/79/98 142/80/98 143/81/98 144/82/98 137/83/98 136/84/98 145/85/98 146/86/98 147/87/98 148/88/98 149/89/98 

vn -0.159239 0.985883 -0.05174
vn -0.175791 0.984428 -1.01268e-13
v -11.4127 1.25 4.03588e-12
v -11.4127 1.25 -3.7082
f 141/90/99 140/91/100 150/92/100 151/93/99 

usemtl _OrangeRed_
vn -0.950032 0.0464016 -0.308684
vn -0.999026 0.0441351 -5.76115e-13
v -11.0703 9 4.23128e-12
v -11.0703 9 -3.59696
f 151/94/101 150/95/102 152/96/102 153/97/101 

usemtl _WhiteSmoke_
vn -0.950032 0.0464016 -0.308684
vn -0.999026 0.0441351 -5.76097e-13
v -10.7279 16.75 4.43023e-12
v -10.7279 16.75 -3.48571
f 153/98/103 152/99/104 154/100/104 155/101/103 

usemtl _OrangeRed_
vn -0.950032 0.0464016 -0.308684
vn -0.999026 0.0441351 -5.76695e-13
v -10.3855 24.5 4.62563e-12
v -10.3855 24.5 -3.37447
f 155/102/105 154/103/106 156/104/106 157/105/105 

usemtl _WhiteSmoke_
vn -0.950032 0.0464016 -0.308684
vn -0.999026 0.0441351 -5.76281e-13
v -10.0432 32.25 4.82459e-12
v -10.0432 32.25 -3.26322
f 157/106/107 156/107/108 158/108/108 159/109/107 

usemtl _OrangeRed_
vn -0.950032 0.0464016 -0.308684
vn -0.999026 0.0441351 -5.75693e-13
v -9.70078 40 5.01998e-12
v -9.70078 40 -3.15197
f 159/110/109 158/111/110 160/112/110 161/113/109 

v -0.475528 40 1.03384e-11
f 161/114/11 160/115/11 162/116/11 122/37/11 126/117/11 

vn -1 0 -5.76201e-13
f 162/118/111 123/119/111 122/120/111

v -0.475528 41.1764 -5.66241
f 123/119/111 162/118/111 163/121/111

v -0.475528 41.1764 -5.19218
f 163/121/111 162/118/111 164/122/111

v -0.475528 40.5 -2
f 164/122/111 162/118/111 165/123/111

v -0.475528 40.5 1.03384e-11
f 165/123/111 162/118/111 166/124/111

vn -7.21192e-14 0.992173 0.124874
v 0.475528 40.5 1.08855e-11
v 0.475528 40.5 -2
f 165/125/112 166/116/11 167/24/11 168/126/112 

f 117/30/79 168/127/79 167/128/79

v 0.475528 41.1764 -5.19218
f 117/30/79 169/129/79 168/127/79

f 117/30/79 119/29/79 169/129/79

vn 3.38644e-13 0.809017 -0.587785
vn -3.38733e-13 0.809017 0.587785
f 169/130/113 119/131/114 163/132/114 164/133/113 

v 0.475528 41.6236 -5.80772
vn -5.47992e-13 -0.309017 0.951057
v -0.475528 41.6236 -5.80772
f 119/134/114 170/135/115 171/136/115 163/137/114 

v 0.475528 43 -9.04549
f 119/29/79 172/138/79 170/139/79

v 0.475528 42.8351 -9.52325
f 119/29/79 173/140/79 172/138/79

f 119/29/79 120/31/79 173/140/79

v -0.475528 42.4778 -9.88063
vn 4.89042e-13 0.530203 -0.847871
v -0.475528 42.8351 -9.52325
vn 3.05549e-13 0.847871 -0.530203
f 174/141/116 175/142/117 173/143/117 120/144/116 

f 174/145/111 163/121/111 175/146/111

f 123/119/111 163/121/111 174/145/111

f 123/147/81 174/148/116 120/149/116 121/150/81 

v -0.475528 43 -9.04549
f 175/146/111 163/121/111 176/151/111

f 176/151/111 163/121/111 171/152/111

v -0.475528 41.9 -5.42729
f 177/153/111 176/151/111 171/152/111

v -0.475528 43 1.03384e-11
f 176/151/111 177/153/111 178/154/111

v -0.475528 42.5 -2
f 178/154/111 177/153/111 179/155/111

v -0.475528 42.4356 -2.25181
f 179/155/111 177/153/111 180/156/111

v -0.475528 41.6236 -5.04687
f 180/156/111 177/153/111 181/157/111

v 0.475528 41.9 -5.42729
vn 5.50279e-17 -1 3.17071e-29
v 0.475528 41.6236 -5.04687
vn 5.48026e-13 -0.309017 -0.951057
f 182/158/118 183/159/119 181/160/119 177/161/118 

v 0.475528 43 -1.8091
f 182/162/79 184/163/79 183/164/79

f 182/162/79 172/138/79 184/163/79

f 172/138/79 182/162/79 170/139/79

f 170/165/115 182/166/118 177/167/118 171/168/115 

vn 9.52918e-14 0.98623 -0.165378
vn -1.04452e-44 1 1.22935e-46
v 0.475528 43 1.08855e-11
f 176/169/120 178/116/121 185/24/121 184/170/121 172/171/120 

v 0.475528 42.5 1.08855e-11
f 186/172/79 184/163/79 185/173/79

v 0.475528 42.5 -2
f 187/174/79 184/163/79 186/172/79

v 0.475528 42.4356 -2.25181
f 188/175/79 184/163/79 187/174/79

v 0.475528 42.2518 -2.4356
f 189/176/79 184/163/79 188/175/79

f 183/164/79 184/163/79 189/176/79

v 0.475528 42 -2.5
f 183/164/79 189/176/79 190/177/79

v -0.475528 42.2518 -2.4356
vn -5.00646e-13 -0.495057 0.868861
v -0.475528 42 -2.5
vn -5.7183e-13 -0.124874 0.992173
f 191/178/122 192/179/123 190/180/123 189/181/122 

f 191/182/111 181/157/111 192/183/111

f 180/156/111 181/157/111 191/182/111

vn -2.85083e-13 -0.868861 0.495057
f 180/184/124 191/185/122 189/186/122 188/187/124 

vn -7.18303e-14 -0.992173 0.124874
f 179/188/125 180/189/124 188/190/124 187/191/125 

vn -0 -1 -0
v -0.475528 42.5 1.03384e-11
f 187/192/125 186/193/126 193/194/126 179/195/125 

f 178/154/111 179/155/111 193/196/111

v -0.475528 41 -2.5
f 192/183/111 181/157/111 194/197/111

v -0.475528 40.7482 -2.4356
f 181/157/111 195/198/111 194/197/111

v -0.475528 40.5644 -2.25181
f 181/157/111 196/199/111 195/198/111

f 164/122/111 196/199/111 181/157/111

f 164/122/111 165/123/111 196/199/111

vn -2.85597e-13 0.868861 0.495057
v 0.475528 40.5644 -2.25181
f 196/200/127 165/201/112 168/202/112 197/203/127 

f 168/127/79 169/129/79 197/204/79

f 197/204/79 169/129/79 183/164/79

f 183/205/119 169/206/113 164/207/113 181/208/119 

v 0.475528 40.7482 -2.4356
f 197/204/79 183/164/79 198/209/79

v 0.475528 41 -2.5
f 198/209/79 183/164/79 199/210/79

f 199/210/79 183/164/79 190/177/79

vn -5.71904e-13 0.124874 0.992173
f 192/211/123 194/212/128 199/213/128 190/214/123 

vn -5.00939e-13 0.495057 0.868861
f 194/215/128 195/216/129 198/217/129 199/218/128 

f 195/219/129 196/220/127 197/221/127 198/222/129 

f 175/223/117 176/224/120 172/225/120 173/226/117 

f 159/227/109 161/228/109 126/229/85 125/230/85 

usemtl _WhiteSmoke_
f 157/231/107 159/232/107 125/233/87 127/234/87 

usemtl _OrangeRed_
f 155/235/105 157/236/105 127/234/88 128/237/88 

usemtl _WhiteSmoke_
f 153/238/103 155/235/103 128/237/90 130/239/90 

usemtl _OrangeRed_
vn -0.587152 0.0464016 -0.808146
v -7.05342 1.25 -9.7082
f 151/240/101 153/241/101 130/242/130 200/243/130 

vn 5.75726e-13 0.0464016 -0.998923
v -4.24194e-12 1.25 -12
f 200/244/130 130/58/130 129/57/131 201/245/131 

vn 0.587152 0.0464016 -0.808146
v 7.05342 1.25 -9.7082
f 201/246/131 129/247/131 131/248/132 202/249/132 

f 202/250/132 131/251/132 132/252/94 135/253/94 

usemtl _Charcoal_
vn 0.0984153 0.985883 -0.135457
f 137/254/96 144/255/133 202/256/133 135/257/96 

vn 9.65e-14 0.985883 -0.167434
f 144/258/133 143/259/134 201/260/134 202/261/133 

vn -0.0984153 0.985883 -0.135457
f 143/262/134 142/263/135 200/264/135 201/265/134 

f 142/266/135 141/267/99 151/268/99 200/269/135 

