# Alias OBJ Model File
# Exported from SketchUp, (c) 2000-2006 Google, Inc.
# File units = inches

mtllib Boulder_Small_Gray.mtl

g Mesh1 Model

usemtl Concrete_rough_reddish
v 3.54595 0 -8.9156
vt -0.147748 0.187954
vn -0.237828 -0.713514 -0.659041
v 4.58762 1.5529 -9.82649
vt -0.191151 0.262968
vn -0.278069 -0.19529 -0.940499
v 8.52612 0 -8.9156
vt -0.355255 0.187954
vn 0.0537748 -0.774741 -0.629988
f 1/1/1 2/2/2 3/3/3

vt -0.316812 0.0388756
vn -0.237828 -0.713514 -0.659041
v 3.07002 0.748899 -8.77341
vt -0.296739 0.070484
vn -0.497478 -0.0660485 -0.864959
vt -0.373514 0.104418
f 1/4/4 4/5/5 2/6/2

vt -0.273686 0.0594515
vt -0.294125 0.0280782
v 1.6499 0 -8.00399
vt -0.206466 0.0280782
vn -0.481686 -0.742544 -0.465411
f 4/7/5 1/8/1 5/9/6

v 1.92335 0.25 1.3756
vt 0.0473894 0.0866487
vn -0.244165 -0.871369 0.425558
vt 0.206466 -0.270661
vn -0.481686 -0.742544 -0.465411
vt 0.294125 -0.270661
f 6/10/7 5/11/8 1/12/4

vt -0.0515661 0.0837793
vn -0.244165 -0.871369 0.425558
v 1.03996 0 0.6878
vt -0.0255547 0.0436788
vn -0.408949 -0.843243 0.348859
vt 0.337494 0.0436788
vn -0.481686 -0.742544 -0.465411
f 6/13/9 7/14/10 5/15/11

vt 0.0985072 0.0101907
vn -0.244165 -0.871369 0.425558
v 0 0.76278 -0
vt 0 0.0316476
vn -0.811653 -0.419289 0.406714
vt 0.0518682 -0.000270402
vn -0.408949 -0.843243 0.348859
f 6/16/12 8/17/13 7/18/14

vt 0.0985157 0.0102878
vn -0.244165 -0.871369 0.425558
v 0.742729 6.82648 -0
vt 0.025441 0.284973
vn -0.765204 0.390509 0.511825
vt 0 0.0317055
vn -0.811653 -0.419289 0.406714
f 6/19/15 9/20/16 8/21/17

v 2.17335 7.129 1.1256
vt 0.100003 0.297674
vn -0.532974 0.673644 0.511998
vt 0.0241582 0.285053
vt 0.098382 0.0106757
f 10/22/18 9/23/16 6/24/9

vt 0.0469 0.150051
v 0.742729 6.82648 -5.66171
vt -0.235904 0.0891239
vn -0.735062 0.670855 -0.0981677
vt 0 0.0891239
vn -0.765204 0.390509 0.511825
f 10/25/18 11/26/19 9/27/20

vt 0.0505835 0.161187
vn -0.532974 0.673644 0.511998
v 0.967959 6.89233 -6.27887
vt -0.25974 0.122415
vn -0.674758 0.735841 -0.0569221
vt -0.234433 0.111626
vn -0.735062 0.670855 -0.0981677
f 10/28/21 12/29/22 11/30/23

vt 0.0593377 0.298661
v 2.12141 7.238 0.323297
vt 0.0259415 0.303907
vn -0.469094 0.880239 0.0716184
vt -0.253191 0.287269
f 10/31/21 13/32/24 12/33/22

vt 0.0798994 0.166353
v 2.28194 7.29074 0.348212
vt 0.0522094 0.185017
vn -0.230967 0.968763 0.0902911
vt 0.0485208 0.178931
f 10/34/21 14/35/25 13/36/24

vt 0.0690518 0.149064
vt 0.0921137 0.124914
vn -0.532974 0.673644 0.511998
v 2.95089 7.29002 1.23333
vt 0.11528 0.148957
vn -0.106799 0.907438 0.406388
f 14/37/25 10/38/26 15/39/27

v 2.60808 7.15033 1.39767
vt 0.12154 0.132338
vn -0.20018 0.703064 0.682371
vt 0.128617 0.147658
vn -0.106799 0.907438 0.406388
vt 0.100282 0.129998
vn -0.532974 0.673644 0.511998
f 16/40/28 15/41/29 10/42/30

vt 0.11316 0.197873
vt 0.0979657 0.190531
v 2.83401 7.20102 1.3216
vt 0.107765 0.193195
vn -0.0175179 0.779457 0.626211
f 15/43/27 16/44/28 17/45/31

v 7.94553 6.79112 2.83803
vt 0.343538 0.0563091
vn -0.0655143 0.579779 0.812135
vt 0.124193 0.0954556
vn -0.0175179 0.779457 0.626211
vt 0.115266 0.0906148
v 4.11443 6.79112 2.3404
vt 0.182568 0.0563091
vn -0.307777 0.225242 0.924413
f 18/46/32 17/47/33 16/48/28 19/49/34 

v 7.56926 7.504 1.87323
vt 0.324516 0.185365
vn 0.0550795 0.94649 0.317997
vt 0.130554 0.171257
vt 0.126484 0.16539
vt 0.34765 0.138365
f 20/50/35 15/51/27 17/52/31 18/53/32 

v 3.54595 7.7184 -8.7012
vt -0.196838 0.358718
vn -0.20541 0.821329 -0.532189
vt 0.069559 0.0861431
vn -0.230967 0.968763 0.0902911
vt 0.115785 0.0856882
vt 0.254425 0.222068
vn 0.0550795 0.94649 0.317997
f 21/54/36 14/55/37 15/56/27 20/57/38 

v 1.58462 7.07263 -7.96862
vt -0.331754 0.156042
vn -0.675522 0.479475 -0.560154
vt 0.0138307 0.178105
vn -0.469094 0.880239 0.0716184
vt 0.014896 0.185141
vn -0.230967 0.968763 0.0902911
vt -0.361945 0.242198
vn -0.20541 0.821329 -0.532189
f 22/58/39 13/59/40 14/60/41 21/61/42 

vt 0.0132122 0.170088
vt -0.332218 0.145718
vn -0.675522 0.479475 -0.560154
vt -0.261737 0.119145
vn -0.674758 0.735841 -0.0569221
f 13/62/40 22/63/43 12/64/44

vt -0.335118 0.287245
vn -0.675522 0.479475 -0.560154
v 0.0837784 0.76278 -5.8998
vt -0.233047 0.0225849
vn -0.792767 -0.513266 -0.328753
v 0 0.76278 -5.66171
vt -0.22253 0.0225849
vn -0.860067 -0.488233 -0.148032
vt -0.232802 0.27692
vt -0.260175 0.279682
vn -0.674758 0.735841 -0.0569221
f 22/65/45 23/66/46 24/67/47 11/68/23 12/69/48 

vt -0.305958 0.295332
vn -0.675522 0.479475 -0.560154
vt -0.308762 0.000636159
vt -0.199469 0.032419
f 22/70/49 5/71/11 23/72/46

vt -0.216221 0.294693
v 3.07002 6.7551 -8.77341
vt -0.286613 0.281463
vn -0.486259 0.120636 -0.865447
vt -0.286613 0.0312041
vt -0.219314 -2.19949e-18
f 22/73/39 25/74/50 4/75/5 5/76/6 

vt -0.28913 0.238556
vn -0.20541 0.821329 -0.532189
vt -0.272514 0.196876
vn -0.486259 0.120636 -0.865447
vt -0.202219 0.210615
f 21/77/51 25/78/52 22/79/39

vt -0.304676 0.236013
v 4.58762 6.7551 -9.61209
vt -0.361022 0.194055
vn -0.196586 0.239838 -0.950701
vt -0.288775 0.194055
vn -0.486259 0.120636 -0.865447
f 21/80/42 26/81/53 25/82/54

v 8.57375 6.5835 -9.61209
vt -0.33983 -0.0975086
vn 0.171477 0.425124 -0.888744
vt -0.173893 -0.0874427
vt -0.132148 -0.0309386
f 27/83/55 26/84/53 21/85/42

vt -0.356504 0.256982
vn 0.171477 0.425124 -0.888744
v 8.57375 1.5529 -9.82649
vt -0.356488 0.0471835
vn 0.0812704 -0.18514 -0.979346
vt -0.190416 0.264139
f 27/86/56 28/87/57 26/88/53

vt -0.24594 0.044646
vn 0.0812704 -0.18514 -0.979346
vt -0.24813 0.254433
vn 0.171477 0.425124 -0.888744
v 14.4594 0.748899 -8.37214
vt -0.498549 0.0111174
vn 0.259297 -0.219711 -0.940474
f 28/89/58 27/90/59 29/91/60

v 14.4594 3.45169 -8.37214
vt -0.517624 0.14382
vn 0.426267 0.320545 -0.8459
vt -0.517624 0.0312041
vt -0.267004 0.274312
vn 0.171477 0.425124 -0.888744
f 30/92/61 29/93/60 27/94/62

v 15.8796 0 -7.56783
vt -0.420325 -3.07487e-18
vn 0.458805 -0.757065 -0.465134
vt -0.352322 0.0312041
vt -0.352322 0.14382
vn 0.426267 0.320545 -0.8459
v 15.8796 3.3768 -7.56783
vt -0.420325 0.1407
vn 0.757376 0.52566 -0.387379
f 31/95/63 29/96/60 30/97/64 32/98/65 

vt -0.282463 0.249665
vt -0.529716 0.288016
vt -0.59396 0.249665
f 3/99/3 29/100/60 31/101/63

vt -0.289512 0.214094
vt -0.285244 0.289013
vt -0.537099 0.250225
f 3/102/3 28/103/57 29/104/60

vt -0.35724 0.262968
vn 0.0812704 -0.18514 -0.979346
f 28/105/66 3/3/3 2/2/2

vt -0.191151 0.0477893
vn -0.278069 -0.19529 -0.940499
vt -0.191151 0.264732
vt -0.35724 0.0477893
f 2/106/67 26/107/53 28/108/66

vt -0.361022 0.271976
vt -0.365343 0.055077
vt -0.288775 0.271976
f 26/109/53 2/110/2 25/111/52

vt -0.313499 0.0312041
vt -0.313499 0.281463
vt -0.390465 0.0647041
f 4/112/5 25/113/54 2/114/67

vt 0.0891597 0.0421497
vn -0.244165 -0.871369 0.425558
vt 0.282463 -0.429338
vn 0.0537748 -0.774741 -0.629988
vt 0.59396 -0.429338
vn 0.458805 -0.757065 -0.465134
f 6/115/68 3/116/69 31/117/70

vt 0.0801397 0.0575527
vt 0.147748 -0.371374
vt 0.355255 -0.371374
vn 0.0537748 -0.774741 -0.629988
f 6/118/68 1/119/4 3/120/71

vt -0.313669 -0.66233
v 15.9051 0 -5.70114
vt -0.235888 -0.663199
vn 0.378382 -0.925646 -0.00261461
v 15.9051 0 0.186293
vt 0.0094206 -0.662585
vn 0.269324 -0.955508 0.120289
vt 0.057517 -0.0797971
vn -0.244165 -0.871369 0.425558
f 31/121/63 33/122/72 34/123/73 6/124/74 

vt 0.228462 0.554493
vt 0.306248 0.554493
vn 0.458805 -0.757065 -0.465134
v 16.797 0.593042 -5.70114
vt 0.227953 0.599118
vn 0.867278 -0.480687 -0.129495
f 33/125/72 31/126/75 35/127/76

vt -0.0955134 0.0247101
vn 0.867278 -0.480687 -0.129495
vt -0.00884855 -6.2153e-18
vt -0.00884855 0.1407
vn 0.757376 0.52566 -0.387379
v 16.797 2.0368 -5.70114
vt -0.0955134 0.0848667
vn 0.967052 0.200661 -0.156671
f 35/128/77 31/129/63 32/130/78 36/131/79 

vt 0.237548 -0.325356
vt 0.315326 -0.25769
v 16.797 2.0368 0.186293
vt -0.00776221 -0.325356
vn 0.915003 0.344781 0.209514
f 36/132/79 32/133/65 37/134/80

v 15.5601 3.3768 1.3756
vt -0.0341374 -0.327266
vn 0.661119 0.491339 0.567016
vt 0.0172251 -0.402039
vn 0.915003 0.344781 0.209514
vt 0.338743 -0.327266
vn 0.757376 0.52566 -0.387379
f 38/135/81 37/136/82 32/137/83

vt 0.499113 0.0848667
vt 0.427617 0.1407
vn 0.661119 0.491339 0.567016
v 16.797 0.593042 0.186293
vt 0.499113 0.0247101
vn 0.778816 -0.401647 0.481793
f 37/138/82 38/139/84 39/140/85

v 14.6999 0 1.44725
vt 0.482977 0.0453352
vn 0.35512 -0.684636 0.636524
vt 0.584894 0.0702217
vt 0.514759 0.187039
vn 0.661119 0.491339 0.567016
f 40/141/86 39/142/85 38/143/87

vt 0.477966 0.393054
vn 0.778816 -0.401647 0.481793
vt 0.37961 0.356553
vn 0.35512 -0.684636 0.636524
vt 0.452289 0.356553
f 39/144/88 40/145/89 34/146/73

vt -0.0139379 -0.0972205
vn -0.244165 -0.871369 0.425558
vt -0.452289 -0.484265
vt -0.37961 -0.484265
f 6/147/90 34/148/73 40/149/89

vt -0.0751056 -0.0600237
vt -0.605376 -0.108324
vn 0.35512 -0.684636 0.636524
v 8.52612 0 1.96148
vt -0.347245 -0.108324
vn -0.0137672 -0.873135 0.487283
f 6/150/15 40/151/91 41/152/92

v 13.0083 0.71288 2.41205
vt 0.531799 0.129073
vn 0.207347 -0.452358 0.867398
vt 0.347245 0.0837664
vt 0.605376 0.0837664
f 42/153/93 41/154/92 40/155/89

vt 0.344955 0.0927654
vt 0.528787 0.140917
vn 0.207347 -0.452358 0.867398
v 8.6249 0.92728 3.14068
vt 0.343991 0.155398
vn 0.0352571 -0.336727 0.940942
f 41/156/92 42/157/94 43/158/95

vt 0.518291 0.0317027
v 13.619 3.44809 2.3404
vt 0.543886 0.145676
vn 0.384372 0.210783 0.898793
vt 0.333145 0.0406366
vn 0.0352571 -0.336727 0.940942
f 42/159/94 44/160/96 43/161/97

vt 0.512579 0.0277224
vt 0.455347 0.171871
vt 0.431473 0.0575246
f 40/162/86 44/163/96 42/164/93

vt 0.465792 0.174605
vn 0.384372 0.210783 0.898793
vt 0.522643 0.030306
vn 0.35512 -0.684636 0.636524
vt 0.55611 0.171622
f 44/165/98 40/166/99 38/167/84

v 8.52612 7.2896 1.96148
vt 0.276312 0.111303
vn 0.38141 0.869977 0.312517
vt 0.456745 -0.0845142
vn 0.384372 0.210783 0.898793
vt 0.547039 -0.088148
vn 0.661119 0.491339 0.567016
f 45/168/100 44/169/101 38/170/102

vt 0.302177 -0.257832
vt 0.173667 -0.0246251
vn 0.38141 0.869977 0.312517
v 8.6249 6.61746 2.92628
vt 0.146238 -0.065429
vn 0.129564 0.474711 0.870553
f 44/171/96 45/172/103 46/173/104

vt 0.288856 0.0572282
vt 0.321526 -0.00724684
vn 0.129564 0.474711 0.870553
vt 0.3268 0.0416357
vn 0.38141 0.869977 0.312517
f 20/174/38 46/175/105 45/176/106

vt 0.319115 -0.0115223
vt 0.287073 0.0532673
vt 0.292543 0.00116927
f 46/177/104 20/178/38 18/179/32

vt 0.342939 0.280423
vn -0.0655143 0.579779 0.812135
v 6.67201 4.15378 2.76544
vt 0.289899 0.170481
vn -0.126436 0.0348875 0.991361
vt 0.371483 0.273183
f 18/180/107 47/181/108 46/182/104

vt 0.290527 0.170232
vn -0.126436 0.0348875 0.991361
vt 0.343538 0.280188
vn -0.0655143 0.579779 0.812135
vt 0.182568 0.280188
vn -0.307777 0.225242 0.924413
f 47/183/109 18/184/110 19/185/111

vt 0.290418 0.170103
vt 0.182464 0.280064
v 4.11443 0.92728 2.5548
vt 0.183603 0.0355766
vn -0.268721 -0.265525 0.925897
f 47/186/108 19/187/34 48/188/112

vt 0.101681 0.297141
vt 0.201796 0.0386114
vt 0.197091 0.283056
f 10/189/18 48/190/112 19/191/111

vt 0.097891 0.00985229
vt 0.201558 0.0381067
vt 0.101937 0.296827
f 6/192/15 48/193/112 10/194/18

vt 0.363086 0.0256156
vt 0.18436 0.0884721
vn -0.268721 -0.265525 0.925897
vt 0.0872128 0.0425621
f 41/195/92 48/196/113 6/197/74

vt 0.183719 0.0893007
vt 0.362823 0.0275314
vt 0.373234 0.0893007
f 48/198/112 41/199/92 43/200/97

vt 0.373234 0.0354926
vt 0.372083 0.272749
vt 0.290527 0.170024
vt 0.183719 0.0354926
f 43/201/97 46/202/105 47/203/108 48/204/112 

vt 0.33879 0.269161
vt 0.33754 0.0319053
vt 0.548248 0.137012
f 46/205/104 43/206/97 44/207/96

vt 0.101644 0.297042
vt 0.197055 0.282963
vt 0.123012 0.297931
f 10/208/21 19/209/34 16/210/28

vt -0.0489137 -0.245402
vt -0.0489331 -0.286425
v 7.57436 7.7184 -8.7012
vt 0.389865 -0.204378
vn 0.173756 0.932018 -0.318042
f 20/211/38 45/212/100 49/213/114

v 8.52612 7.2896 -8.9156
vt 0.371483 -0.199137
vn 0.436421 0.824241 -0.360783
vt 0.36255 -0.155641
vn 0.173756 0.932018 -0.318042
vt -0.0817284 -0.199137
vn 0.38141 0.869977 0.312517
f 50/214/115 49/215/116 45/216/117

vt -0.260165 -0.131818
vt -0.227915 -0.0657081
vt -0.264627 -0.0906863
f 27/217/62 49/218/114 50/219/115

vt -0.315598 0.0238741
vt -0.35724 -0.036761
vt -0.147748 0.0238741
f 49/220/116 27/221/56 21/222/36

vt 0.315598 0.368995
vt 0.147748 0.368995
vt 0.315386 -0.0716973
f 49/223/114 21/224/36 20/225/38

vt -0.0571211 -0.0908348
vt -0.267408 -0.298157
vt -0.0410966 -0.128978
f 50/226/115 30/227/61 27/228/62

vt -0.333339 -0.225822
vt -0.110375 -0.032198
vt -0.401309 -0.2296
f 30/229/61 50/230/115 32/231/65

vt 0.338743 -0.508749
vt 0.383928 -0.160082
vt -0.0341374 -0.508749
f 32/232/83 50/233/115 38/234/102

vt -0.0817284 -0.162804
vt -0.0573167 -0.498181
vt 0.371483 -0.162804
f 45/235/100 38/236/87 50/237/115

vt -0.00776221 0.596483
vt -0.00776221 0.551855
vt 0.237548 0.551855
vt 0.237548 0.596483
f 39/238/88 34/239/73 33/240/72 35/241/77 

vt -0.00776221 0.0848667
vt -0.00776221 0.0247101
vt 0.237548 0.0247101
vt 0.237548 0.0848667
f 37/242/80 39/243/85 35/244/76 36/245/79 

v 1.16708 0.22322 -5.66171
vt -0.236571 -0.0364129
vn -0.465326 -0.883816 -0.0483751
vt -0.24585 0.0141355
vt -0.334442 -0.0573251
f 51/246/118 23/247/46 5/248/11

vt -0.233047 0.084299
vt -0.238671 0.0332148
vn -0.465326 -0.883816 -0.0483751
vt -0.22253 0.084299
vn -0.860067 -0.488233 -0.148032
f 23/249/46 51/250/119 24/251/120

vt -0.235904 0.0133373
vt -0.235904 -0.0402363
vt 0 0.0133373
f 24/252/47 51/253/119 8/254/17

vt 0 0.0182725
vn -0.811653 -0.419289 0.406714
vt -0.23873 -0.0208313
vt -0.337494 -0.0370088
vn -0.481686 -0.742544 -0.465411
vt 0.0255547 -0.0370088
f 8/255/121 51/256/119 5/257/122 7/258/14 

vt -0.235904 0.286089
vt -0.235904 0.0315467
vt 0 0.0315467
vt 0 0.286089
vn -0.765204 0.390509 0.511825
f 11/259/23 24/260/47 8/261/13 9/262/123 

