# Alias OBJ Model File
# Exported from SketchUp, (c) 2000-2006 Google, Inc.
# File units = inches

mtllib Boulder_Medium_Gray.mtl

g Mesh1 Model

usemtl Concrete_rough_small
v 0.4375 9 0.302373
vt 0.0198579 0.144964
vn -0.0631494 0.986506 0.151058
v -7.20176 6.75 4.23844
vt -0.271416 -0.0834269
vn -0.142563 0.921285 0.361816
v 7.21567 7.6875 4.23844
vt 0.32301 0.0117358
vn 0.092247 0.895316 0.435774
f 1/1/1 2/2/2 3/3/3

vt 0.0204668 0.103614
vn -0.0631494 0.986506 0.151058
v -6.34067 8.0625 -3.6337
vt -0.27041 -0.0499329
vn -0.105879 0.985112 -0.13544
vt -0.014177 -0.264899
f 1/4/4 4/5/5 2/6/2

vt -0.00943724 0.0710217
vn -0.0631494 0.986506 0.151058
v 7.21567 9 -3.6337
vt -0.336026 0.0710217
vn 0.088623 0.978336 -0.187094
vt 0.152437 -0.215305
f 1/7/6 5/8/7 4/9/5

vt 0.00943724 0.0513057
vt 0.171311 -0.237567
vn 0.092247 0.895316 0.435774
vt 0.336026 0.0513057
vn 0.088623 0.978336 -0.187094
f 1/10/1 3/11/8 5/12/9

vt 0.241371 -0.0386479
vn 0.088623 0.978336 -0.187094
vt -0.0686128 -0.159016
vn 0.092247 0.895316 0.435774
v 15.6564 5.8125 -8.91688
vt 0.564381 -0.330971
vn 0.470555 0.759765 -0.448703
f 5/13/10 3/14/11 6/15/12

v 17.42 5.25 4.78669
vt -0.16768 -0.663042
vn 0.648745 0.758582 0.0606921
vt 0.399564 -0.56203
vt -0.163355 -0.225323
vn 0.092247 0.895316 0.435774
f 7/16/13 6/17/12 3/18/14

v 16.75 5.375 -7.80095
vt 0.304572 -0.568271
vn 0.760381 0.440825 -0.476964
vt 0.352376 -0.520464
vt -0.220504 -0.58193
vn 0.648745 0.758582 0.0606921
f 8/19/15 6/20/12 7/21/16

vt -0.177716 0.193301
vt -0.242808 0.175032
vn 0.760381 0.440825 -0.476964
v 15.6564 0 -9.47938
vt -0.160674 -0.0494201
vn 0.674303 -0.235794 -0.699798
f 6/22/12 8/23/17 9/24/18

v 18.5625 0 -7.80095
vt -0.507201 -0.111135
vn 0.94805 -0.112365 -0.297615
vt -0.367367 -0.111135
vn 0.674303 -0.235794 -0.699798
vt -0.441803 0.115986
f 10/25/19 9/26/20 8/27/17

v -2.9216 0 11.3959
vt 0.121733 -0.474829
vn 0.0292218 -0.889474 0.456051
v 13.9118 0 -11.9637
vt -0.579657 0.498486
vn 0.293479 -0.1037 -0.950324
vt -0.65235 0.394974
vt -0.773439 0.325039
v 18.4375 0 10.7549
vt -0.768229 -0.448122
vn 0.764642 -0.495501 0.412069
v 11.2608 0 11.9275
vt -0.469198 -0.49698
vn 0.0207156 -0.450675 0.892448
v 4.19038 0 11.107
vt -0.174599 -0.46279
vn -0.0391073 -0.479731 0.876544
f 11/28/21 12/29/22 9/30/20 10/31/19 13/32/23 14/33/24 15/34/25 

vt -0.743308 -0.177099
vn 0.293479 -0.1037 -0.950324
vt 0.456396 -0.177099
vn 0.0292218 -0.889474 0.456051
v -7.40949 2.625 -14.3199
vt -0.303574 0.60869
vn -0.200986 -0.435371 -0.877529
f 12/35/26 11/36/27 16/37/28

vt 0.212206 -0.439653
v -9.90212 0 12.7873
vt 0.508782 -0.439653
vn 0.0320473 -0.912859 0.407015
vt 0.186135 0.653206
vn -0.200986 -0.435371 -0.877529
f 11/38/21 17/39/29 16/40/30

vt -0.212206 0.273666
v -2.9834 0.781275 12.0366
vt -0.21995 0.315128
vn 0.138469 0.114274 0.983752
vt -0.508782 0.273666
vn 0.0320473 -0.912859 0.407015
f 11/41/21 18/42/31 17/43/32

vt -0.180703 0.329065
vt -0.1751 0.287259
v 4.13617 1.03623 11.426
vt 0.116912 0.342707
vn 0.00633235 0.0642543 0.997913
f 18/44/31 11/45/21 19/46/33

vt 0.155669 0.137173
vn -0.0391073 -0.479731 0.876544
vt 0.152872 0.182319
vn 0.00633235 0.0642543 0.997913
vt -0.140908 0.137173
f 15/47/34 19/48/35 11/49/21

vt 0.198512 0.179278
vn 0.00633235 0.0642543 0.997913
vt 0.200029 0.134071
v 11.2608 1.375 11.9275
vt 0.496072 0.194058
vn -0.0196525 0.278587 0.96021
f 19/50/36 15/51/34 20/52/37

vt 0.523363 -2.78206e-14
vt 0.523363 0.0572917
vt 0.226787 -2.78206e-14
f 14/53/24 20/54/37 15/55/25

vt 0.685917 -5.06881e-15
vn 0.764642 -0.495501 0.412069
v 18.4375 2.3125 10.7549
vt 0.685917 0.0963542
vn 0.579922 0.563048 0.588785
vt 0.382921 0.0572917
vn -0.0196525 0.278587 0.96021
vt 0.382921 -5.06881e-15
f 13/56/38 21/57/39 20/58/40 14/59/24 

vt -0.342757 0
v 19.2325 2 4.78669
vt -0.091883 0.0833333
vn 0.985783 0.165587 0.0284926
vt -0.342757 0.0963542
vn 0.579922 0.563048 0.588785
f 13/60/38 22/61/41 21/62/42

vt -0.194041 0.361389
vn 0.985783 0.165587 0.0284926
vt -0.442935 0.272318
vt 0.330244 0.272318
f 22/63/43 13/64/23 10/65/19

vt -0.310004 -0.297026
vt 0.213204 -0.392219
vt -0.299399 -0.142338
vn 0.648745 0.758582 0.0606921
f 22/66/43 10/67/19 7/68/44

vt 0.289868 -0.0154054
vn 0.760381 0.440825 -0.476964
vt -0.235356 -0.0209012
vt 0.286106 -0.251724
f 8/69/45 7/70/13 10/71/19

vt -0.123285 -0.16891
vn 0.648745 0.758582 0.0606921
vt -0.366242 -0.308875
vn 0.579922 0.563048 0.588785
vt -0.115472 -0.323765
vn 0.985783 0.165587 0.0284926
f 7/72/46 21/73/47 22/74/48

vt 0.504339 -0.610945
vt 0.571853 -0.338805
vt 0.196856 -0.112987
vn 0.092247 0.895316 0.435774
f 21/75/42 7/76/44 3/77/49

vt 0.766458 -0.287916
vt 0.299955 0.0654725
vn 0.092247 0.895316 0.435774
vt 0.467237 -0.349553
f 21/78/39 3/79/50 20/80/40

vt 0.527012 -0.287872
vt 0.320171 0.108924
vt 0.229847 -0.309166
f 20/81/37 3/82/8 19/83/33

vt 0.149381 -0.321798
vt 0.291866 0.0815079
vt -0.148145 -0.337257
f 19/84/33 3/85/8 18/86/31

vt 0.313963 0.0823277
vt -0.284791 0.0199494
vt -0.0832982 -0.37719
f 3/87/50 2/88/2 18/89/31

vt -0.30108 -0.329327
vt -0.344124 0.113918
vn -0.142563 0.921285 0.361816
v -9.90212 1.375 13.8498
vt -0.596852 -0.285236
vn -0.110546 0.213547 0.970658
f 18/90/31 2/91/51 23/92/52

v -17.5625 1.375 9.57674
vt -0.444681 -0.589013
vn -0.558943 0.65354 0.510362
vt -0.0791986 -0.589013
vt -0.176028 -0.126606
f 24/93/53 23/94/52 2/95/51

vt -0.100765 0.372715
vt -0.0791986 0.441832
vt -0.444681 0.441832
vn -0.558943 0.65354 0.510362
v -17.5625 0 8.51424
vt -0.466248 0.372715
vn -0.764954 -0.592318 0.25299
f 17/96/29 23/97/52 24/98/54 25/99/55 

vt -0.515766 0.339954
vt -0.507261 0.268052
vt -0.218342 0.308907
f 23/100/52 17/101/32 18/102/31

vt 0.399031 0.0572917
v -17.5625 6.375 -4.375
vt -0.182292 0.265625
vn -0.817007 0.571773 -0.0746664
vt 0.35476 1.12763e-16
vn -0.764954 -0.592318 0.25299
f 24/103/53 26/104/56 25/105/57

vt -0.572011 0.555009
vt -0.833025 -0.0046423
vn -0.558943 0.65354 0.510362
v -13.5726 6.75 -7.42632
vt -0.366379 0.596983
vn -0.402355 0.846542 -0.348534
f 26/106/56 24/107/58 27/108/59

vt 0.0111582 -0.198192
vn -0.142563 0.921285 0.361816
vt -0.542639 -0.198192
vn -0.402355 0.846542 -0.348534
vt -0.000555516 -0.732849
f 2/109/60 27/110/61 24/111/53

vt -0.259514 -0.0594935
vn -0.105879 0.985112 -0.13544
vt -0.542639 -0.255969
vn -0.402355 0.846542 -0.348534
vt 0.0111582 -0.255969
f 4/112/62 27/113/63 2/114/2

vt 0.371776 -0.461524
vt 0.17067 -0.18167
v -7.40949 6.75 -10.4449
vt 0.0858346 -0.461524
vn -0.0263837 0.813964 -0.580316
f 27/115/61 4/116/5 28/117/64

v 13.9118 5.8125 -8.96368
vt -0.45396 -0.45821
vn 0.0252587 0.7627 -0.64626
vt 0.416917 -0.26811
vn -0.0263837 0.813964 -0.580316
vt 0.295734 -0.00197057
f 29/118/65 28/119/66 4/120/5

vt -0.542934 0.0210814
vt -0.531462 -0.25122
vt 0.347367 0.065001
vn -0.0263837 0.813964 -0.580316
f 29/121/65 12/122/22 28/123/67

vt -0.642152 0.0369154
vt -0.566082 -0.235607
vt -0.569434 0.0369154
vn 0.0252587 0.7627 -0.64626
f 6/124/12 12/125/22 29/126/68

vt -0.070856 0.200311
vt -0.0516756 -0.0422505
vn 0.674303 -0.235794 -0.699798
vt 0.0748118 -0.0422505
f 6/127/12 9/128/69 12/129/26

vt -0.642152 -0.215278
vn 0.470555 0.759765 -0.448703
vt -0.569434 -0.215278
vn 0.0252587 0.7627 -0.64626
vt -0.296485 0.0498678
f 6/130/70 29/131/71 5/132/10

vt -0.314342 0.113434
vn 0.088623 0.978336 -0.187094
vt -0.614245 -0.12079
vt 0.247648 0.0445448
f 5/133/72 29/134/71 4/135/5

vt 0.432742 -0.2665
vn -0.200986 -0.435371 -0.877529
vt 0.397126 -0.0333874
vt -0.455416 -0.414844
f 16/136/73 28/137/67 12/138/26

vt 0.0858346 -0.124619
vt 0.0148166 -0.349489
vt 0.371776 -0.124619
vn -0.402355 0.846542 -0.348534
f 28/139/66 16/140/30 27/141/74

v -15.3226 0 -10.2388
vt 0.270983 -0.315987
vn -0.457411 -0.719561 -0.5225
vt 0.279872 -0.00282154
vt -0.0961079 -0.1942
f 30/142/75 27/143/59 16/144/28

vt 0.161556 -0.0132784
vt 0.126043 -0.32455
v -19.8125 1.5625 -4.375
vt 0.432214 -0.252497
vn -0.89976 0.0711794 -0.43054
f 27/145/59 30/146/75 31/147/76

vt -0.0830986 0.801955
vn -0.89976 0.0711794 -0.43054
vt -0.347888 0.632193
vn -0.457411 -0.719561 -0.5225
vt 0.439044 0.632193
vn -0.764954 -0.592318 0.25299
f 31/148/77 30/149/78 25/150/79

vt 0.731771 -0.35476
vt 0.638441 0.426618
vt 0.412588 -0.532805
f 25/151/57 30/152/78 17/153/29

vt 0.651528 -0.124915
vt -0.424087 -0.501071
vt 0.56156 -0.501071
f 16/154/28 17/155/29 30/156/78

vt -0.363591 -0.257135
vn -0.89976 0.0711794 -0.43054
vt 0.180774 -0.328676
vt -0.34247 -0.0367911
vn -0.817007 0.571773 -0.0746664
f 31/157/80 25/158/79 26/159/81

vt 0.248334 0.103204
vt 0.530784 -0.121971
vt 0.457574 0.0869266
f 27/160/61 31/161/80 26/162/56

