# Alias OBJ Model File
# Exported from SketchUp, (c) 2000-2006 Google, Inc.
# File units = inches

mtllib Tree_z_Icon_3.mtl

g Mesh1 Group1 Model

usemtl FrontColor
v 2.208 81.0853 5.25851
vt 12 0
vn 0 1 -0
v 2.208 81.0853 -4.30241
vt 12 13.8564
v -6.072 81.0853 0.478046
vt 0 6.9282
f 1/1/1 2/2/1 3/3/1

g Mesh2 Group1 Model

v -4.968 88.1875 -7.10543e-15
vt 1.6 7.62102
v -2.484 88.1875 4.30241
vt 5.2 1.38564
v 2.484 88.1875 4.30241
vt 12.4 1.38564
v 4.968 88.1875 -7.10543e-15
vt 16 7.62102
v 2.484 88.1875 -4.30241
vt 12.4 13.8564
v -2.484 88.1875 -4.30241
vt 5.2 13.8564
f 4/4/1 5/5/1 6/6/1 7/7/1 8/8/1 9/9/1 

usemtl _SaddleBrown_
v -4.968 0 -7.10543e-15
vt -5.8 0
vn -1 0 -2.28833e-14
v -2.484 0 4.30241
vt 1.4 0
vn -0.5 0 0.866025
vt 1.4 127.808
vt -5.8 127.808
f 10/10/2 11/11/3 5/12/3 4/13/2 

vt 5.2 0
v 2.484 0 4.30241
vt 12.4 0
vn 0.5 0 0.866025
vt 12.4 127.808
vt 5.2 127.808
f 11/14/3 12/15/4 6/16/4 5/17/3 

vt 7.4 0
v 4.968 0 -7.10543e-15
vt 14.6 0
vn 1 0 -2.29474e-14
vt 14.6 127.808
vt 7.4 127.808
f 12/18/4 13/19/5 7/20/5 6/21/4 

vt -1.4 0
v 2.484 0 -4.30241
vt 5.8 0
vn 0.5 0 -0.866025
vt 5.8 127.808
vt -1.4 127.808
f 13/22/5 14/23/6 8/24/6 7/25/5 

vt -12.4 0
v -2.484 0 -4.30241
vt -5.2 0
vn -0.5 0 -0.866025
vt -5.2 127.808
vt -12.4 127.808
f 14/26/6 15/27/7 9/28/7 8/29/6 

vt -14.6 0
vt -7.4 0
vt -7.4 127.808
vt -14.6 127.808
f 15/30/7 10/31/2 4/32/2 9/33/7 

g Mesh3 Model

usemtl _DarkGreen_
v -39.6342 197.055 12.0486
vt -12.5138 62.6131
vn -0.56382 0.808853 0.166922
v -25.3692 197.055 32.8107
vt 12.6766 62.6131
vn -0.358026 0.808853 0.466448
v -10.3483 210.321 13.2409
vt 5.05322 89.5664
vn -0.196803 0.946323 0.256402
v -15.9792 210.321 5.04535
vt -4.89038 89.5664
vn -0.309926 0.946323 0.0917554
f 16/34/8 17/35/9 18/36/10 19/37/11 

v -33.2062 184.684 43.021
vt 16.6541 94.8934
vn -0.472618 0.63047 0.615743
vt 12.6766 112.297
vn -0.358026 0.808853 0.466448
vt -12.5138 112.297
vn -0.56382 0.808853 0.166922
v -51.9759 184.684 15.7024
vt -16.4912 94.8934
vn -0.744281 0.63047 0.220349
f 20/38/12 17/39/13 16/40/14 21/41/15 

v -1.96366 184.684 54.0897
vt 16.212 94.9572
vn -0.0204315 0.63047 0.775945
v -1.62486 197.055 41.2229
vt 12.2345 112.361
vn -0.0154776 0.808853 0.587807
vt -12.9559 112.361
vt -16.9333 94.9572
vn -0.472618 0.63047 0.615743
f 22/42/16 23/43/17 17/44/9 20/45/18 

v 29.8181 184.684 44.6805
vt 15.9077 95.1916
vn 0.439559 0.63047 0.639762
v 22.5293 197.055 34.0719
vt 11.9302 112.596
vn 0.332982 0.808853 0.484643
vt -13.2602 112.596
vn -0.0154776 0.808853 0.587807
vt -17.2377 95.1916
vn -0.0204315 0.63047 0.775945
f 24/46/19 25/47/20 23/48/21 22/49/22 

vt -17.288 95.507
v 49.9995 184.684 18.3875
vt 15.8573 95.507
vn 0.731653 0.63047 0.259212
v 37.8671 197.055 14.0892
vt 11.8799 112.911
vn 0.554255 0.808853 0.196362
vt -13.3105 112.911
vn 0.332982 0.808853 0.484643
f 24/50/19 26/51/23 27/52/24 25/53/25 

v 40.2725 155.082 59.8966
vt -22.9929 98.4819
vn 0.526471 0.368341 0.766259
v 67.4011 155.082 24.5526
vt 21.5622 98.4819
vn 0.87632 0.368341 0.310464
vt 15.8573 132.899
vn 0.731653 0.63047 0.259212
vt -17.288 132.899
f 28/54/26 29/55/27 26/56/28 24/57/19 

v 43.993 121.758 65.3116
vt -25.0231 105.912
vn 0.565114 0.0643184 0.822502
v 73.5939 121.758 26.7466
vt 23.5925 105.912
vn 0.940641 0.0643184 0.333252
vt 21.5622 139.817
vn 0.87632 0.368341 0.310464
vt -22.9929 139.817
vn 0.526471 0.368341 0.766259
f 30/58/29 31/59/30 29/60/31 28/61/32 

v 42.6925 87.0854 63.4188
vt -24.3134 91.4698
vn 0.51196 -0.427395 0.745138
v 71.4292 87.0854 25.9797
vt 22.8828 91.4698
vn 0.852165 -0.427395 0.301907
vt 23.5925 126.211
vt -25.0231 126.211
vn 0.565114 0.0643184 0.822502
f 32/62/33 33/63/34 31/64/30 30/65/35 

v 32.377 69.6479 48.4049
vt -18.6843 88.2826
vn 0.254348 -0.893456 0.370194
v 54.2588 69.6479 19.8965
vt 17.2537 88.2826
vn 0.423367 -0.893456 0.149991
vt 22.8828 112.863
vt -24.3134 112.863
vn 0.51196 -0.427395 0.745138
f 34/66/36 35/67/37 33/68/34 32/69/38 

v 9.76306 62.5854 15.4912
vt -6.34414 28.3295
vn 0.0659364 -0.993198 0.0959678
v 16.6176 62.5854 6.56091
vt 4.91351 28.3295
vn 0.109752 -0.993198 0.0388832
vt 17.2537 66.9598
vt -18.6843 66.9598
f 36/70/39 37/71/40 35/72/37 34/73/36 

v -0.0725381 62.5854 -17.7309
vt 0.0725381 17.7309
vn 0.00306484 -0.993198 -0.116396
v 10.5388 62.5854 -13.9715
vt -10.5388 13.9715
vn 0.0708954 -0.993198 -0.0923649
v 16.9139 62.5854 -4.69283
vt -16.9139 4.69283
vn 0.111646 -0.993198 -0.0330535
vt -16.6176 -6.56091
vt -9.76306 -15.4912
v -1.03146 62.5854 18.687
vt 1.03146 -18.687
vn -0.00306484 -0.993198 0.116396
v -11.6428 62.5854 14.9276
vt 11.6428 -14.9276
vn -0.0708954 -0.993198 0.0923649
v -18.0179 62.5854 5.64892
vt 18.0179 -5.64892
vn -0.111646 -0.993198 0.0330535
v -17.7216 62.5854 -5.60482
vt 17.7216 5.60482
vn -0.109752 -0.993198 -0.0388832
v -10.8671 62.5854 -14.5351
vt 10.8671 14.5351
vn -0.0659364 -0.993198 -0.0959678
f 38/74/41 39/75/42 40/76/43 37/77/40 36/78/39 41/79/44 42/80/45 43/81/46 44/82/47 45/83/48 

vt 5.98949 27.8496
v 0.978597 69.6479 -57.6508
vt 18.3297 66.4799
vn 0.0118226 -0.893456 -0.448996
v 34.8535 69.6479 -45.6495
vt -17.6083 66.4799
vn 0.273478 -0.893456 -0.356296
vt -5.26815 27.8496
f 38/84/41 46/85/49 47/86/50 39/87/42 

v -33.481 69.6479 -47.4488
vt 18.634 66.8075
vn -0.254348 -0.893456 -0.370194
vt -17.304 66.8075
vn 0.0118226 -0.893456 -0.448996
vt -4.96383 28.1772
vt 6.29382 28.1772
f 48/88/51 46/89/52 38/90/41 45/91/48 

v -43.7965 87.0854 -62.4627
vt 24.2631 112.754
vn -0.51196 -0.427395 -0.745138
v 1.45808 87.0854 -75.8606
vt -22.9331 112.754
vn 0.0237968 -0.427395 -0.903752
vt -17.304 88.1734
vn 0.0118226 -0.893456 -0.448996
vt 18.634 88.1734
vn -0.254348 -0.893456 -0.370194
f 49/92/53 50/93/54 46/94/55 48/95/56 

vt 24.2631 91.4601
vn -0.51196 -0.427395 -0.745138
v -45.097 121.758 -64.3555
vt 24.9728 126.201
vn -0.565114 0.0643184 -0.822502
v 1.51853 121.758 -78.1563
vt -23.6428 126.201
vn 0.0262675 0.0643184 -0.997584
vt -22.9331 91.4601
vn 0.0237968 -0.427395 -0.903752
f 49/96/57 51/97/58 52/98/59 50/99/60 

v -74.6979 121.758 -25.7905
vt 25.0231 126.23
vn -0.940641 0.0643184 -0.333252
vt -23.5925 126.23
vn -0.565114 0.0643184 -0.822502
vt -22.8828 91.4883
v -72.5332 87.0854 -25.0236
vt 24.3134 91.4883
vn -0.852165 -0.427395 -0.301907
f 53/100/61 51/101/62 49/102/57 54/103/63 

v -68.5051 155.082 -23.5965
vt 22.9929 139.763
vn -0.87632 0.368341 -0.310464
v -41.3765 155.082 -58.9405
vt -21.5622 139.763
vn -0.526471 0.368341 -0.766259
vt -23.5925 105.858
vt 25.0231 105.858
f 55/104/64 56/105/65 51/106/58 53/107/61 

v -51.1035 184.684 -17.4314
vt 17.288 132.749
vn -0.731653 0.63047 -0.259212
v -30.9221 184.684 -43.7244
vt -15.8573 132.749
vn -0.439559 0.63047 -0.639762
vt -21.5622 98.3322
vn -0.526471 0.368341 -0.766259
vt 22.9929 98.3322
vn -0.87632 0.368341 -0.310464
f 57/108/66 58/109/67 56/110/68 55/111/69 

v -38.9711 197.055 -13.1332
vt 13.3105 112.704
vn -0.554255 0.808853 -0.196362
v -23.6333 197.055 -33.1158
vt -11.8799 112.704
vn -0.332982 0.808853 -0.484643
vt -15.8573 95.3005
vn -0.439559 0.63047 -0.639762
vt 17.288 95.3005
vn -0.731653 0.63047 -0.259212
f 59/112/70 60/113/71 58/114/72 57/115/73 

vt 13.3105 63.117
vn -0.554255 0.808853 -0.196362
v -15.7174 210.321 -4.8948
vt 5.68711 90.0703
vn -0.304668 0.946323 -0.107938
v -9.66303 210.321 -12.7827
vt -4.25648 90.0703
vn -0.183037 0.946323 -0.266403
vt -11.8799 63.117
f 59/116/74 61/117/75 62/118/76 60/119/71 

vt 13.0876 62.7754
vn -0.56382 0.808853 0.166922
vt 5.46421 89.7287
vt -4.47939 89.7287
vn -0.304668 0.946323 -0.107938
vt -12.1028 62.7754
f 16/120/77 19/121/11 61/122/78 59/123/70 

vt -15.9792 -5.04535
vt -10.3483 -13.2409
vn -0.196803 0.946323 0.256402
v -0.975497 210.321 16.5615
vt -0.975497 -16.5615
vn -0.00850788 0.946323 0.323111
v 8.55903 210.321 13.7388
vt 8.55903 -13.7388
vn 0.183037 0.946323 0.266403
v 14.6134 210.321 5.85089
vt 14.6134 -5.85089
vn 0.304668 0.946323 0.107938
v 14.8752 210.321 -4.08926
vt 14.8752 4.08926
vn 0.309926 0.946323 -0.0917554
v 9.24426 210.321 -12.2849
vt 9.24426 12.2849
vn 0.196803 0.946323 -0.256402
v -0.128503 210.321 -15.6055
vt -0.128503 15.6055
vn 0.00850788 0.946323 -0.323111
vt -9.66303 12.7827
vt -15.7174 4.8948
f 19/124/11 18/125/79 63/126/80 64/127/81 65/128/82 66/129/83 67/130/84 68/131/85 62/132/76 61/133/78 

vt -12.9559 62.6921
vn -0.358026 0.808853 0.466448
vt 12.2345 62.6921
vt 4.61113 89.6454
vt -5.33247 89.6454
f 17/134/86 23/135/21 63/136/80 18/137/79 

vt -13.2602 62.9822
vt 11.9302 62.9822
vt 4.3068 89.9355
vt -5.63679 89.9355
f 23/138/21 25/139/20 64/140/81 63/141/80 

vt -5.68711 90.3259
vt -13.3105 63.3726
vt 11.8799 63.3726
vt 4.25648 90.3259
f 64/142/81 25/143/25 27/144/24 65/145/82 

vt -5.46421 90.6675
vt -13.0876 63.7142
vn 0.554255 0.808853 0.196362
v 38.5302 197.055 -11.0925
vt 12.1028 63.7142
vn 0.56382 0.808853 -0.166922
vt 4.47939 90.6675
f 65/146/82 27/147/87 69/148/88 66/149/83 

vt -17.0651 95.783
v 50.8719 184.684 -14.7463
vt 16.0802 95.783
vn 0.744281 0.63047 -0.220349
vt 12.1028 113.187
vt -13.0876 113.187
f 26/150/23 70/151/89 69/152/88 27/153/87 

vt -22.77 98.6821
v 68.5739 155.082 -19.9871
vt 21.7851 98.6821
vn 0.891444 0.368341 -0.263917
vt 16.0802 133.099
vt -17.0651 133.099
f 29/154/27 71/155/90 70/156/89 26/157/23 

vt -24.8002 105.985
vn 0.940641 0.0643184 0.333252
v 74.8736 121.758 -21.8521
vt 23.8154 105.985
vn 0.956876 0.0643184 -0.283288
vt 21.7851 139.89
vn 0.891444 0.368341 -0.263917
vt -22.77 139.89
vn 0.87632 0.368341 0.310464
f 31/158/91 72/159/92 71/160/93 29/161/94 

vt -24.0905 91.4452
v 72.6715 87.0854 -21.2002
vt 23.1057 91.4452
vn 0.866872 -0.427395 -0.256643
vt 23.8154 126.186
vt -24.8002 126.186
f 33/162/34 73/163/95 72/164/92 31/165/91 

vt -18.4614 88.006
vn 0.423367 -0.893456 0.149991
v 55.2048 69.6479 -16.0291
vt 17.4766 88.006
vn 0.430674 -0.893456 -0.127503
vt 23.1057 112.587
vt -24.0905 112.587
f 35/166/96 74/167/97 73/168/95 33/169/34 

vt -6.12123 27.9437
vt 5.13641 27.9437
vt 17.4766 66.574
vn 0.430674 -0.893456 -0.127503
vt -18.4614 66.574
f 37/170/40 40/171/43 74/172/98 35/173/37 

vt 5.5474 27.7603
vt 17.8876 66.3906
vt -18.0504 66.3906
vt -5.71024 27.7603
f 39/174/42 47/175/50 74/176/98 40/177/43 

vt 17.8876 87.8746
v 45.9449 87.0854 -60.0997
vt 23.5167 112.455
vn 0.550464 -0.427395 -0.717163
vt -23.6795 112.455
vt -18.0504 87.8746
f 47/178/50 75/179/99 73/180/95 74/181/98 

vt 18.3297 87.9385
vt 23.9588 112.519
vn 0.0237968 -0.427395 -0.903752
vt -23.2374 112.519
vn 0.550464 -0.427395 -0.717163
vt -17.6083 87.9385
f 46/182/52 50/183/100 75/184/101 47/185/50 

vt 23.9588 91.4391
vn 0.0237968 -0.427395 -0.903752
vt 24.6685 126.18
vn 0.0262675 0.0643184 -0.997584
v 47.3432 121.758 -61.9215
vt -23.9471 126.18
vn 0.607616 0.0643184 -0.791622
vt -23.2374 91.4391
vn 0.550464 -0.427395 -0.717163
f 50/186/102 52/187/103 76/188/104 75/189/105 

vt 24.6685 106.002
v 1.3456 155.082 -71.5886
vt 22.6382 139.907
vn 0.0244713 0.368341 -0.929369
v 43.3429 155.082 -56.7097
vt -21.9169 139.907
vn 0.566067 0.368341 -0.737491
vt -23.9471 106.002
vn 0.607616 0.0643184 -0.791622
f 52/190/103 77/191/106 78/192/107 76/193/108 

vt 24.9728 105.941
vn -0.565114 0.0643184 -0.822502
vt 22.9425 139.846
vn -0.526471 0.368341 -0.766259
vt -21.6125 139.846
vt -23.6428 105.941
vn 0.0262675 0.0643184 -0.997584
f 51/194/109 56/195/110 77/196/106 52/197/111 

vt 22.9425 98.561
vt 17.2377 132.978
v 0.859655 184.684 -53.1336
vt -15.9077 132.978
vn 0.0204315 0.63047 -0.775945
vt -21.6125 98.561
f 56/198/68 58/199/67 79/200/112 77/201/106 

vt 17.2377 95.616
vt 13.2602 113.02
v 0.520858 197.055 -40.2668
vt -11.9302 113.02
vn 0.0154776 0.808853 -0.587807
vt -15.9077 95.616
f 58/202/67 60/203/71 80/204/113 79/205/112 

vt 13.2602 63.5074
vt 5.63679 90.4607
vt -4.3068 90.4607
vt -11.9302 63.5074
vn 0.0154776 0.808853 -0.587807
f 60/206/71 62/207/76 68/208/85 80/209/114 

vt 5.33247 90.7508
vt -4.61113 90.7508
v 24.2652 197.055 -31.8546
vt -12.2345 63.7975
vn 0.358026 0.808853 -0.466448
vt 12.9559 63.7975
f 68/210/85 67/211/84 81/212/115 80/213/113 

vt 4.89038 90.8298
vt -5.05322 90.8298
vt -12.6766 63.8765
vn 0.56382 0.808853 -0.166922
vt 12.5138 63.8765
vn 0.358026 0.808853 -0.466448
f 67/214/84 66/215/83 69/216/116 81/217/117 

vt -12.6766 113.318
vt -16.6541 95.9142
v 32.1022 184.684 -42.0649
vt 16.4912 95.9142
vn 0.472618 0.63047 -0.615743
vt 12.5138 113.318
f 69/218/88 70/219/89 82/220/118 81/221/115 

vt -16.6541 133.195
vt -22.359 98.7773
vt 22.1961 98.7773
vn 0.566067 0.368341 -0.737491
vt 16.4912 133.195
vn 0.472618 0.63047 -0.615743
f 70/222/89 71/223/90 78/224/119 82/225/120 

vt -22.359 139.924
vn 0.891444 0.368341 -0.263917
vt -24.3892 106.019
vn 0.956876 0.0643184 -0.283288
vt 24.2264 106.019
vn 0.607616 0.0643184 -0.791622
vt 22.1961 139.924
f 71/226/121 72/227/122 76/228/123 78/229/107 

vt -24.3892 126.175
vn 0.956876 0.0643184 -0.283288
vt -23.6795 91.4334
vn 0.866872 -0.427395 -0.256643
vt 23.5167 91.4334
vt 24.2264 126.175
f 72/230/124 73/231/125 75/232/99 76/233/123 

vt 22.6382 98.731
vt 16.9333 133.148
vn 0.0204315 0.63047 -0.775945
vt -16.212 133.148
vn 0.472618 0.63047 -0.615743
vt -21.9169 98.731
f 77/234/106 79/235/126 82/236/127 78/237/107 

vt 16.9333 95.8504
vt 12.9559 113.254
vt -12.2345 113.254
vn 0.358026 0.808853 -0.466448
vt -16.212 95.8504
f 79/238/126 80/239/113 81/240/128 82/241/120 

vt 17.0651 95.0245
vn -0.744281 0.63047 0.220349
vt 13.0876 112.428
vt -12.1028 112.428
vt -16.0802 95.0245
vn -0.731653 0.63047 -0.259212
f 21/242/129 16/243/14 59/244/70 57/245/130 

v -69.6779 155.082 20.9431
vt 22.77 98.132
vn -0.891444 0.368341 0.263917
vt 17.0651 132.549
vt -16.0802 132.549
vt -21.7851 98.132
f 83/246/131 21/247/129 57/248/66 55/249/69 

v -44.4469 155.082 57.6658
vt 22.359 98.0369
vn -0.566067 0.368341 0.737491
vt 16.6541 132.454
vt -16.4912 132.454
vt -22.1961 98.0369
f 84/250/132 20/251/18 21/252/129 83/253/131 

v -2.4496 155.082 72.5447
vt 21.9169 98.0831
vn -0.0244713 0.368341 0.929369
vt 16.212 132.5
vn -0.0204315 0.63047 0.775945
vt -16.9333 132.5
vt -22.6382 98.0831
f 85/254/133 22/255/134 20/256/18 84/257/132 

vt 21.6125 98.2532
vt 15.9077 132.67
vn 0.439559 0.63047 0.639762
vt -17.2377 132.67
vt -22.9425 98.2532
f 28/258/26 24/259/135 22/260/134 85/261/133 

vt 23.6428 105.83
vn 0.565114 0.0643184 0.822502
vt 21.6125 139.735
vt -22.9425 139.735
vn -0.0244713 0.368341 0.929369
v -2.62253 121.758 79.1124
vt -24.9728 105.83
vn -0.0262675 0.0643184 0.997584
f 30/262/136 28/263/26 85/264/137 86/265/138 

vt 23.9471 105.768
vn -0.0262675 0.0643184 0.997584
vt 21.9169 139.673
vt -22.6382 139.673
vn -0.566067 0.368341 0.737491
v -48.4472 121.758 62.8776
vt -24.6685 105.768
vn -0.607616 0.0643184 0.791622
f 86/266/139 85/267/133 84/268/140 87/269/141 

vt 24.3892 105.751
vt 22.359 139.657
vt -22.1961 139.657
vn -0.891444 0.368341 0.263917
v -75.9776 121.758 22.8082
vt -24.2264 105.751
vn -0.956876 0.0643184 0.283288
f 87/270/141 84/271/140 83/272/142 88/273/143 

vt 24.8002 105.786
vn -0.956876 0.0643184 0.283288
vt 22.77 139.691
vn -0.891444 0.368341 0.263917
vt -21.7851 139.691
vt -23.8154 105.786
f 88/274/144 83/275/145 55/276/64 53/277/61 

v -73.7755 87.0854 22.1563
vt 24.0905 91.513
vn -0.866872 -0.427395 0.256643
vt 24.8002 126.254
vn -0.956876 0.0643184 0.283288
vt -23.8154 126.254
vt -23.1057 91.513
f 89/278/146 88/279/147 53/280/61 54/281/63 

v -47.0489 87.0854 61.0558
vt 23.6795 91.5247
vn -0.550464 -0.427395 0.717163
vt 24.3892 126.266
vt -24.2264 126.266
vt -23.5167 91.5247
vn -0.866872 -0.427395 0.256643
f 90/282/148 87/283/141 88/284/143 89/285/149 

v -2.56208 87.0854 76.8167
vt 23.2374 91.519
vn -0.0237968 -0.427395 0.903752
vt 23.9471 126.26
vt -24.6685 126.26
vt -23.9588 91.519
vn -0.550464 -0.427395 0.717163
f 91/286/150 86/287/139 87/288/141 90/289/151 

vt 22.9331 91.498
vn 0.51196 -0.427395 0.745138
vt 23.6428 126.239
vt -24.9728 126.239
vt -24.2631 91.498
vn -0.0237968 -0.427395 0.903752
f 32/290/152 30/291/29 86/292/138 91/293/153 

vt -24.2631 113.179
vn -0.0237968 -0.427395 0.903752
v -2.0826 69.6479 58.6069
vt -18.634 88.5987
vn -0.0118226 -0.893456 0.448996
vt 17.304 88.5987
vt 22.9331 113.179
f 91/294/154 92/295/155 34/296/36 32/297/38 

vt -23.9588 113.414
v -35.9575 69.6479 46.6056
vt -18.3297 88.8336
vn -0.273478 -0.893456 0.356296
vt 17.6083 88.8336
vn -0.0118226 -0.893456 0.448996
vt 23.2374 113.414
f 90/298/148 93/299/156 92/300/157 91/301/150 

vt -23.5167 113.478
v -56.3088 69.6479 16.9852
vt -17.8876 88.8975
vn -0.430674 -0.893456 0.127503
vt 18.0504 88.8975
vt 23.6795 113.478
f 89/302/146 94/303/158 93/304/156 90/305/148 

vt 24.0905 113.347
vt -23.1057 113.347
vn -0.852165 -0.427395 -0.301907
v -55.3628 69.6479 -18.9404
vt -17.4766 88.7661
vn -0.423367 -0.893456 -0.149991
vt 18.4614 88.7661
f 89/306/146 54/307/159 95/308/160 94/309/158 

vt 24.3134 113.07
vt -22.8828 113.07
vt -17.2537 88.4895
vt 18.6843 88.4895
f 54/310/63 49/311/57 48/312/56 95/313/160 

vt 18.6843 67.2484
vt -17.2537 67.2484
vt -4.91351 28.6181
vt 6.34414 28.6181
f 95/314/160 48/315/51 45/316/48 44/317/47 

vt 18.4614 67.6342
vt -17.4766 67.6342
vt -5.13641 29.0039
vt 6.12123 29.0039
f 94/318/158 95/319/160 44/320/47 43/321/46 

vt -17.8876 67.8175
vt -5.5474 29.1872
vt 5.71024 29.1872
vt 18.0504 67.8175
vn -0.273478 -0.893456 0.356296
f 94/322/158 43/323/46 42/324/45 93/325/161 

vt -18.3297 67.7283
vt -5.98949 29.098
vt 5.26815 29.098
vt 17.6083 67.7283
vn -0.0118226 -0.893456 0.448996
f 93/326/156 42/327/45 41/328/44 92/329/162 

vt -18.634 67.4007
vt -6.29382 28.7704
vt 4.96383 28.7704
vt 17.304 67.4007
vn 0.254348 -0.893456 0.370194
f 92/330/155 41/331/44 36/332/39 34/333/163 

g Mesh4 Model

v 1.60742 69.6479 -3.26219
vt 3.02316 69.6739
vn 0.499624 0.0387652 0.865374
v 2.2839 87.0854 -4.43388
vt 4.19485 87.1245
v -6.2238 87.0854 0.478046
vt -5.62899 87.1245
v -4.87085 69.6479 0.478046
vt -4.4573 69.6739
f 96/334/164 97/335/164 98/336/164 99/337/164 

v 2.2839 87.0854 5.38997
vt 5.38997 87.1084
vn -0.999248 0.0387652 -9.27693e-19
vt -4.43388 87.1084
vt -3.26219 69.6578
v 1.60742 69.6479 4.21828
vt 4.21828 69.6578
f 100/338/165 97/339/165 96/340/165 101/341/165 

vt 3.97926 69.706
vn 0.499624 0.0387652 -0.865374
vt 5.15095 87.1566
vt -4.6729 87.1566
vt -3.50121 69.706
f 99/342/166 98/343/166 100/344/166 101/345/166 

