# Alias OBJ Model File
# Exported from SketchUp, (c) 2000-2006 Google, Inc.
# File units = inches

mtllib Tree_z_Icon_6.mtl

g Mesh1 Model

usemtl _SeaGreen_
v -0.183491 117.112 -0.0650074
vt 0.060155 113.07
vn -0.907247 0.271277 -0.321421
v -0.110237 117.112 -0.160445
vt -0.060155 113.07
vn -0.545052 0.271277 -0.793302
v -17.4174 8.67494 -25.3503
vt -9.50449 0.805502
v -28.9915 8.67494 -10.2712
vt 9.50449 0.805502
f 1/1/1 2/2/2 3/3/2 4/4/1 

usemtl FrontColor
v 0.118527 117.112 -0.154422
vt 0.118527 0.154422
vn 0 1 -0
v 0.00512399 117.112 -0.194598
vt 0.00512399 0.194598
vt -0.110237 0.160445
vt -0.183491 0.0650074
v -0.186657 117.112 0.055261
vt -0.186657 -0.055261
v -0.118527 117.112 0.154422
vt -0.118527 -0.154422
v -0.00512399 117.112 0.194598
vt -0.00512399 -0.194598
v 0.110237 117.112 0.160445
vt 0.110237 -0.160445
v 0.183491 117.112 0.0650074
vt 0.183491 -0.0650074
v 0.186657 117.112 -0.055261
vt 0.186657 0.055261
f 5/5/3 6/6/3 2/7/3 1/8/3 7/9/3 8/10/3 9/11/3 10/12/3 11/13/3 12/14/3 

usemtl _SeaGreen_
v 0.809591 8.67494 -30.7465
vt 9.50449 0.805502
vn 0.025335 0.271277 -0.962168
vt 0.060155 113.07
vt -0.060155 113.07
vn 0.586044 0.271277 -0.763518
v 18.7273 8.67494 -24.3986
vt -9.50449 0.805502
f 13/15/4 6/16/4 5/17/5 14/18/5 

vt 9.50449 0.805502
vt 0.060155 113.07
vt -0.060155 113.07
vt -9.50449 0.805502
f 3/19/2 2/20/2 6/21/4 13/22/4 

vt -0.809591 30.7465
vn 0 -1 -0
v -1.78905 8.67494 -0.369976
vt 1.78905 0.369976
vt 17.4174 25.3503
f 13/23/6 15/24/6 3/25/6

v 1.21493 8.67494 -1.36437
vt -1.21493 1.36437
f 15/24/6 13/23/6 16/26/6

vt -18.7273 24.3986
f 16/26/6 13/23/6 14/27/6

v 17.4174 8.67494 25.3503
vt -17.4174 -25.3503
f 16/26/6 14/27/6 17/28/6

v 28.9915 8.67494 10.2712
vt -28.9915 -10.2712
f 17/28/6 14/27/6 18/29/6

v 29.4919 8.67494 -8.73123
vt -29.4919 8.73123
f 18/29/6 14/27/6 19/30/6

vt -0.060155 113.07
vn 0.922905 0.271277 -0.273231
vt -9.50449 0.805502
vt 9.50449 0.805502
vt 0.060155 113.07
f 12/31/7 19/32/7 14/33/5 5/34/5 

vt -9.50449 0.805502
vn 0.907247 0.271277 0.321421
vt 9.50449 0.805502
vt 0.060155 113.07
vt -0.060155 113.07
f 18/35/8 19/36/7 12/37/7 11/38/8 

vt -9.50449 0.805502
vn 0.545052 0.271277 0.793302
vt 9.50449 0.805502
vt 0.060155 113.07
vt -0.060155 113.07
f 17/39/9 18/40/8 11/41/8 10/42/9 

vt 9.50449 0.805502
vt 0.060155 113.07
vt -0.060155 113.07
vn -0.025335 0.271277 0.962168
v -0.809591 8.67494 30.7465
vt -9.50449 0.805502
f 17/43/9 10/44/9 9/45/10 20/46/10 

vt 9.50449 0.805502
vt 0.060155 113.07
vt -0.060155 113.07
vn -0.586044 0.271277 0.763518
v -18.7273 8.67494 24.3986
vt -9.50449 0.805502
f 20/47/10 9/48/10 8/49/11 21/50/11 

vt 9.50449 0.805502
vt 0.060155 113.07
vt -0.060155 113.07
vn -0.922905 0.271277 0.273231
v -29.4919 8.67494 8.73123
vt -9.50449 0.805502
f 21/51/11 8/52/11 7/53/12 22/54/12 

vt 9.50449 0.805502
vt 0.060155 113.07
vt -0.060155 113.07
vt -9.50449 0.805502
f 22/55/12 7/56/12 1/57/1 4/58/1 

vt 28.9915 10.2712
vt 18.7273 -24.3986
vt 29.4919 -8.73123
f 4/59/6 21/60/6 22/61/6

f 21/60/6 4/59/6 3/25/6

vt 0.809591 -30.7465
f 21/60/6 3/25/6 20/62/6

f 20/62/6 3/25/6 15/24/6

v 0.574116 8.67494 1.73435
vt -0.574116 -1.73435
f 20/62/6 15/24/6 23/63/6

usemtl _SaddleBrown_
v -2.26462 0 -0.468324
vt 2.00272 -0.0323519
vn 0.664762 -0.0279796 -0.746531
vt 1.58215 8.64599
vt -1.58215 8.64599
v 0.72673 0 2.19538
vt -2.00272 -0.0323519
f 24/64/13 15/65/13 23/66/13 25/67/13 

v 1.53789 0 -1.72706
vt 2.00272 -0.0323519
vn 0.314133 -0.0279796 0.948966
vt 1.58215 8.64599
vt -1.58215 8.64599
vt -2.00272 -0.0323519
f 26/68/14 16/69/14 15/70/14 24/71/14 

vt 1.58215 8.64599
vn -0.978896 -0.0279796 -0.202436
vt -1.58215 8.64599
vt -2.00272 -0.0323519
vt 2.00272 -0.0323519
f 23/72/15 16/73/15 26/74/15 25/75/15 

usemtl _SeaGreen_
f 17/28/6 23/63/6 16/26/6

f 20/62/6 23/63/6 17/28/6

usemtl _SaddleBrown_
vt -2.26462 0.468324
vt 0.72673 -2.19538
vt 1.53789 1.72706
f 24/76/3 25/77/3 26/78/3

