# Alias OBJ Model File
# Exported from SketchUp, (c) 2000-2006 Google, Inc.
# File units = inches

mtllib Wall_Brick_Curved.mtl

g Mesh1 wall_curved Model

usemtl _Brick_rough2_
v 110.482 0 -116.312
vt 4.59659 0
vn 0.422618 0 0.906308
v 127.617 0 -121.714
vt 5.24878 0
vn 0.300706 0 0.953717
v 127.617 16 -121.714
vt 5.24878 0.928442
v 110.482 16 -116.312
vt 4.59659 0.928442
f 1/1/1 2/2/2 3/3/2 4/4/1 

usemtl Material2
v 111.335 16 -114.484
vt -138.895 333.407
vn 0 -1 -0
vt -138.373 335.356
vt -156.185 337.701
f 5/5/3 4/6/3 3/7/3

v 76.3677 16 -92.2073
vt -100.591 317.541
f 6/8/3 4/6/3 5/5/3

v 75.071 16 -93.7526
vt -99.582 319.288
f 6/8/3 7/9/3 4/6/3

v 48.3577 16 -61.6397
vt -67.6982 292.302
f 8/10/3 7/9/3 6/8/3

v 46.7053 16 -62.7968
vt -66.2717 293.728
f 8/10/3 9/11/3 7/9/3

v 29.2136 16 -24.8642
vt -42.4589 259.409
f 10/12/3 9/11/3 8/10/3

v 27.318 16 -25.5542
vt -40.7119 260.418
f 10/12/3 11/13/3 9/11/3

v 28.7187 16 -22.6317
vt -41.5838 257.297
f 12/14/3 11/13/3 10/12/3

v 27.1989 16 -25.0171
vt -40.5014 259.91
f 12/14/3 13/15/3 11/13/3

v 8.64933 16 -29.1295
vt -22.9477 267.181
f 12/14/3 14/16/3 13/15/3

v 6.26385 16 -27.6098
vt -20.3345 266.098
f 15/17/3 14/16/3 12/14/3

v 7.41419 16 -32.7986
vt -22.3684 271.009
f 14/16/3 15/17/3 16/18/3

vt -258.939 16
vn -0.939693 0 -0.34202
vt -253.625 16
vn -0.976296 0 -0.21644
v 6.26385 19 -27.6098
vt -253.625 19
v 7.41419 19 -32.7986
vt -258.939 19
f 16/19/4 15/20/5 17/21/5 18/22/4 

v 111.335 19 -114.484
vt 138.895 333.407
vn 0 1 -0
v 129.891 19 -120.334
vt 158.185 335.947
v 125.863 19 -143.181
vt 158.185 359.145
v 101.531 19 -135.509
vt 132.89 355.815
v 61.456 19 -109.978
vt 88.9914 337.632
v 29.3547 19 -74.9458
vt 51.2944 308.706
vt 22.3684 271.009
vt 20.3345 266.098
v 28.7187 19 -22.6317
vt 41.5838 257.297
v 29.2136 19 -24.8642
vt 42.4589 259.409
v 48.3577 19 -61.6397
vt 67.6982 292.302
v 76.3677 19 -92.2073
vt 100.591 317.541
f 19/23/6 20/24/6 21/25/6 22/26/6 23/27/6 24/28/6 18/29/6 17/30/6 25/31/6 26/32/6 27/33/6 28/34/6 

vt 181.225 16
vn 0.422618 0 0.906308
v 129.891 16 -120.334
vt 200.682 16
vn 0.300706 0 0.953717
vt 200.682 19
vt 181.225 19
f 5/35/7 29/36/8 20/37/8 19/38/7 

vt -158.185 335.947
f 5/5/3 3/7/3 29/39/3

v 125.863 16 -143.181
vt -158.185 359.145
f 3/7/3 30/40/3 29/39/3

v 124.289 16 -140.587
vt -156.185 356.865
f 31/41/3 30/40/3 3/7/3

v 102.383 16 -133.68
vt -133.413 353.867
f 32/42/3 30/40/3 31/41/3

v 101.531 16 -135.509
vt -132.89 355.815
f 32/42/3 33/43/3 30/40/3

v 62.7527 16 -108.433
vt -90 335.885
f 34/44/3 33/43/3 32/42/3

v 61.456 16 -109.978
vt -88.9914 337.632
f 34/44/3 35/45/3 33/43/3

v 31.0071 16 -73.7888
vt -52.7208 307.279
f 36/46/3 35/45/3 34/44/3

v 29.3547 16 -74.9458
vt -51.2944 308.706
f 36/46/3 37/47/3 35/45/3

v 9.30979 16 -32.1086
vt -24.1154 270
f 38/48/3 37/47/3 36/46/3

f 38/48/3 16/18/3 37/47/3

f 16/18/3 38/48/3 14/16/3

usemtl _Brick_rough2_
v 9.30979 0 -32.1086
vt 5.89136 0
vn -0.939693 0 -0.34202
v 8.64933 0 -29.1295
vt 6 0
vn -0.976296 0 -0.21644
vt 6 0.928442
vt 5.89136 0.928442
f 39/49/9 40/50/10 14/51/10 38/52/9 

v 31.0071 0 -73.7888
vt 4.20268 0
vn -0.819152 0 -0.573576
vt 5.89136 0
vt 5.89136 0.928442
vt 4.20268 0.928442
f 41/53/11 39/54/9 38/55/9 36/56/11 

v 62.7527 0 -108.433
vt 2.51401 0
vn -0.642788 0 -0.766044
vt 4.20268 0
vt 4.20268 0.928442
vt 2.51401 0.928442
f 42/57/12 41/58/11 36/59/11 34/60/12 

v 102.383 0 -133.68
vt 0.825332 0
vn -0.422618 0 -0.906308
vt 2.51401 0
vt 2.51401 0.928442
vt 0.825332 0.928442
f 43/61/13 42/62/12 34/63/12 32/64/13 

v 124.289 0 -140.587
vt 1.33227e-14 0
vn -0.300706 0 -0.953717
vt 0.825332 0
vt 0.825332 0.928442
vt 1.33227e-14 0.928442
f 44/65/14 43/66/13 32/67/13 31/68/14 

usemtl Material2
vt -276.139 16
vn -0.819152 0 -0.573576
vt -228.623 16
vt -228.623 19
vt -276.139 19
f 37/69/15 16/70/4 18/71/4 24/72/15 

vt -276.139 16
vn -0.642788 0 -0.766044
vt -228.623 16
vt -228.623 19
vt -276.139 19
f 35/73/16 37/74/15 24/75/15 23/76/16 

vt -258.939 16
vn -0.422618 0 -0.906308
vt -211.423 16
vt -211.423 19
vt -258.939 19
f 33/77/17 35/78/16 23/79/16 22/80/17 

vt -203.71 16
vn -0.300706 0 -0.953717
vt -178.197 16
vt -178.197 19
vt -203.71 19
f 30/81/18 33/82/17 22/83/17 21/84/18 

vt 214.451 16
vn 0.642788 0 0.766044
vt 255.911 16
vt 255.911 19
vt 214.451 19
f 6/85/19 5/86/7 19/87/7 28/88/19 

vt 231.651 16
vn 0.819152 0 0.573576
vt 273.111 16
vt 273.111 19
vt 231.651 19
f 8/89/20 6/90/19 28/91/19 27/92/20 

vt 231.651 16
vn 0.939693 0 0.34202
vt 231.651 19
f 10/93/21 8/90/20 27/91/20 26/94/21 

vt 253.625 16
vn 0.976296 0 0.21644
vt 255.911 16
vt 255.911 19
vt 253.625 19
f 12/95/22 10/96/21 26/97/21 25/98/22 

usemtl _Brick_rough2_
v 27.1989 0 -25.0171
vt -1.06581e-14 0
vn 0.976296 0 0.21644
v 27.318 0 -25.5542
vt 0.0197693 0
vn 0.939693 0 0.34202
vt 0.0197693 0.928442
vt -1.06581e-14 0.928442
f 45/99/23 46/100/24 11/101/24 13/102/23 

vt 0.0197693 0
v 46.7053 0 -62.7968
vt 1.54538 0
vn 0.819152 0 0.573576
vt 1.54538 0.928442
vt 0.0197693 0.928442
f 46/103/24 47/104/25 9/105/25 11/106/24 

vt 1.54538 0
v 75.071 0 -93.7526
vt 3.07099 0
vt 3.07099 0.928442
vt 1.54538 0.928442
f 47/107/25 48/108/19 7/109/19 9/110/25 

vt 3.07099 0
vt 4.59659 0
vt 4.59659 0.928442
vt 3.07099 0.928442
f 48/111/19 1/112/1 4/113/1 7/114/19 

g Mesh2 wall_end1 Model

v 128.067 28 -119.128
vt 0.150181 1.62477
vn 0.292372 0 0.956305
v 128.067 6 -119.128
vt 0.150181 0.348166
v 151.018 6 -126.145
vt 1.01975 0.348166
v 151.018 28 -126.145
vt 1.01975 1.62477
f 49/115/26 50/116/26 51/117/26 52/118/26 

v 121.05 28 -142.079
vt -0.891806 1.62477
vn -0.956305 0 0.292372
v 121.05 6 -142.079
vt -0.891806 0.348166
vt -0.0222407 0.348166
vt -0.0222407 1.62477
f 53/119/27 54/120/27 50/121/27 49/122/27 

v 144.001 28 -149.096
vt -1.01975 1.62477
vn -0.292372 0 -0.956305
v 144.001 6 -149.096
vt -1.01975 0.348166
vt -0.150181 0.348166
vt -0.150181 1.62477
f 55/123/28 56/124/28 54/125/28 53/126/28 

vt 0.0222407 1.62477
vn 0.956305 0 -0.292372
vt 0.0222407 0.348166
vt 0.891806 0.348166
vt 0.891806 1.62477
f 52/127/29 51/128/29 56/129/29 55/130/29 

usemtl Material2
v 144.665 6 -150.345
vt 25.8062 28.9748
vt 24.9355 27.8604
vt 27.8604 4.03928
f 57/131/6 56/132/6 51/133/6

vt 1.11442 24.9355
f 57/131/6 54/134/6 56/132/6

v 119.801 6 -142.743
vt 0 25.8062
f 54/134/6 57/131/6 58/135/6

vt -3.14498 6
vn -0.292372 0 -0.956305
vt -29.145 6
v 144.665 0 -150.345
vt -29.145 0
v 119.801 0 -142.743
vt -3.14498 0
f 58/136/30 57/137/30 59/138/30 60/139/30 

vt 25.6138 6
vn 0.956305 0 -0.292372
v 152.267 6 -125.481
vt -0.386156 6
v 152.267 0 -125.481
vt -0.386156 0
vt 25.6138 0
f 57/140/31 61/141/31 62/142/31 59/143/31 

vt 28.9748 3.1686
f 57/131/6 51/133/6 61/144/6

vt 4.03928 1.11442
f 50/145/6 61/144/6 51/133/6

v 127.403 6 -117.879
vt 3.1686 -2.84217e-14
f 50/145/6 63/146/6 61/144/6

f 54/134/6 63/146/6 50/145/6

f 63/146/6 54/134/6 58/135/6

vt 0.386156 6
vn -0.956305 0 0.292372
vt -25.6138 6
vt -25.6138 0
v 127.403 0 -117.879
vt 0.386156 0
f 63/147/32 58/148/32 60/149/32 64/150/32 

vt 29.145 6
vn 0.292372 0 0.956305
vt 3.14498 6
vt 3.14498 0
vt 29.145 0
f 61/151/33 63/152/33 64/153/33 62/154/33 

vt -24.9355 27.8604
v 144.665 28 -150.345
vt -25.8062 28.9748
vt -27.8604 4.03928
f 55/155/3 65/156/3 52/157/3

vt -1.11442 24.9355
f 53/158/3 65/156/3 55/155/3

v 119.801 28 -142.743
f 65/156/3 53/158/3 66/135/3

v 127.403 28 -117.879
vt -3.1686 -2.84217e-14
f 53/158/3 67/159/3 66/135/3

vt -4.03928 1.11442
f 67/159/3 53/158/3 49/160/3

v 152.267 28 -125.481
vt -28.9748 3.1686
f 67/159/3 49/160/3 68/161/3

f 68/161/3 49/160/3 52/157/3

f 52/157/3 65/156/3 68/161/3

vt -0.386156 28
vt 25.6138 28
v 144.665 32 -150.345
vt 25.6138 32
v 152.267 32 -125.481
vt -0.386156 32
f 68/162/31 65/163/31 69/164/31 70/165/31 

vt -29.145 28
vn -0.292372 0 -0.956305
vt -3.14498 28
v 119.801 32 -142.743
vt -3.14498 32
vt -29.145 32
f 65/166/34 66/167/34 71/168/34 69/169/34 

vt -25.6138 28
vt 0.386156 28
v 127.403 32 -117.879
vt 0.386156 32
vt -25.6138 32
f 66/170/32 67/171/32 72/172/32 71/173/32 

vt 3.14498 28
vn 0.292372 0 0.956305
vt 29.145 28
vt 29.145 32
vt 3.14498 32
f 67/174/35 68/175/35 70/176/35 72/177/35 

f 71/135/6 72/146/6 70/144/6 69/131/6 

g Mesh3 wall_end2 Model

usemtl _Brick_rough2_
v 24.5842 28 -1.19932
vn 0.97437 0 0.224951
v 24.5842 6 -1.19932
v 29.983 6 -24.5842
v 29.983 28 -24.5842
f 73/115/36 74/116/36 75/117/36 76/118/36 

v 1.19932 28 -6.59815
vn -0.224951 0 0.97437
v 1.19932 6 -6.59815
f 77/119/37 78/120/37 74/121/37 73/122/37 

v 6.59815 28 -29.983
vn -0.97437 0 -0.224951
v 6.59815 6 -29.983
f 79/123/38 80/124/38 78/125/38 77/126/38 

vn 0.224951 0 -0.97437
f 76/127/39 75/128/39 80/129/39 79/130/39 

usemtl Material2
v 5.84873 6 -31.1823
f 81/131/6 80/132/6 75/133/6

f 81/131/6 78/134/6 80/132/6

v 1.06581e-14 6 -5.84873
f 78/134/6 81/131/6 82/135/6

vn -0.97437 0 -0.224951
v 5.84873 0 -31.1823
v 1.06581e-14 0 -5.84873
f 82/136/40 81/137/40 83/138/40 84/139/40 

vn 0.224951 0 -0.97437
v 31.1823 6 -25.3336
v 31.1823 0 -25.3336
f 81/140/41 85/141/41 86/142/41 83/143/41 

f 81/131/6 75/133/6 85/144/6

f 74/145/6 85/144/6 75/133/6

v 25.3336 6 -8.88178e-16
f 74/145/6 87/146/6 85/144/6

f 78/134/6 87/146/6 74/145/6

f 87/146/6 78/134/6 82/135/6

vn -0.224951 0 0.97437
v 25.3336 0 -8.88178e-16
f 87/147/42 82/148/42 84/149/42 88/150/42 

vn 0.97437 0 0.224951
f 85/151/43 87/152/43 88/153/43 86/154/43 

v 5.84873 28 -31.1823
f 79/155/3 89/156/3 76/157/3

f 77/158/3 89/156/3 79/155/3

v 1.06581e-14 28 -5.84873
f 89/156/3 77/158/3 90/135/3

v 25.3336 28 -8.88178e-16
f 77/158/3 91/159/3 90/135/3

f 91/159/3 77/158/3 73/160/3

v 31.1823 28 -25.3336
f 91/159/3 73/160/3 92/161/3

f 92/161/3 73/160/3 76/157/3

f 76/157/3 89/156/3 92/161/3

v 5.84873 32 -31.1823
v 31.1823 32 -25.3336
f 92/162/41 89/163/41 93/164/41 94/165/41 

vn -0.97437 0 -0.224951
v 1.06581e-14 32 -5.84873
f 89/166/44 90/167/44 95/168/44 93/169/44 

v 25.3336 32 -8.88178e-16
f 90/170/42 91/171/42 96/172/42 95/173/42 

vn 0.97437 0 0.224951
f 91/174/45 92/175/45 94/176/45 96/177/45 

f 95/135/6 96/146/6 94/144/6 93/131/6 

